<svg width="242" height="242" viewBox="0 0 242 242" fill="none" xmlns="http://www.w3.org/2000/svg">
<circle cx="46" cy="67" r="41" fill="#FFD9A1"/>
<path d="M46 85.6587C47.7565 85.6587 49.1805 84.2266 49.1805 82.4601C49.1805 80.6935 47.7565 79.2614 46 79.2614C44.2435 79.2614 42.8196 80.6935 42.8196 82.4601C42.8196 84.2266 44.2435 85.6587 46 85.6587Z" fill="black"/>
<path fill-rule="evenodd" clip-rule="evenodd" d="M46 69.6655C49.0816 69.6655 52.0612 71.3028 54.2785 74.3695C54.6229 74.8458 54.5181 75.5126 54.0446 75.8589C53.571 76.2052 52.908 76.0999 52.5637 75.6236C50.6695 73.0039 48.2838 71.798 46 71.798C43.7163 71.798 41.3306 73.0039 39.4364 75.6236C39.092 76.0999 38.429 76.2052 37.9555 75.8589C37.4819 75.5126 37.3772 74.8458 37.7215 74.3695C39.9388 71.3028 42.9184 69.6655 46 69.6655Z" fill="black"/>
<path fill-rule="evenodd" clip-rule="evenodd" d="M29.3353 65.7261C37.9458 56.7625 51.9339 56.7625 60.5444 65.7261C60.9513 66.1496 60.9397 66.8246 60.5186 67.2337C60.0975 67.6429 59.4264 67.6312 59.0195 67.2077C51.2425 59.1119 38.6372 59.1119 30.8602 67.2077C30.4534 67.6312 29.7822 67.6429 29.3611 67.2337C28.94 66.8246 28.9285 66.1496 29.3353 65.7261Z" fill="black"/>
<path fill-rule="evenodd" clip-rule="evenodd" d="M22.9372 59.3696C35.665 44.6652 56.335 44.6652 69.0628 59.3696C69.4473 59.8137 69.4009 60.4872 68.9593 60.8738C68.5177 61.2605 67.848 61.2138 67.4636 60.7697C55.5809 47.0418 36.4191 47.0418 24.5364 60.7697C24.152 61.2138 23.4824 61.2605 23.0407 60.8738C22.5991 60.4872 22.5528 59.8137 22.9372 59.3696Z" fill="black"/>
<line x1="68.3413" y1="46.0729" x2="25.0729" y2="89.3413" stroke="black" stroke-width="2" stroke-linecap="round"/>
<path d="M80.8242 159.049L93.3496 160.23L113.674 172.047L91.9316 194.025L83.4238 190.717L65.6992 213.168L61.4453 214.586L54.8281 216.24L45.375 213.168L41.3574 207.023L39.7031 201.588L41.3574 190.717L80.8242 159.049Z" fill="#FDD1C2" stroke="#E88163"/>
<path d="M146.806 151.452L205.133 191.189L200.879 209.859L192.179 215.853L184.1 215.853L130.332 187.892L146.806 151.452Z" fill="#FDD1C2"/>
<path d="M127.764 116.387C129.001 115.865 130.056 114.989 130.799 113.87C131.541 112.751 131.937 111.439 131.937 110.096V95.7176L131.914 95.6704C134.234 94.347 136.173 92.4468 137.544 90.1538C138.914 87.8609 139.669 85.2529 139.736 82.5825L139.788 80.2523H139.826C143.229 80.2523 146.798 76.2631 146.798 72.86C146.798 69.4568 145.049 67.6608 142.96 67.4622L142.898 67.4008C138.904 71.182 130.817 73.8053 121.496 73.8053C112.176 73.8053 104.117 71.2151 100.113 67.4197L100.09 67.4481C97.9249 67.5757 96.0768 69.2961 96.0768 72.86C96.0768 76.2631 99.6454 80.2523 103.053 80.2523H103.091L103.138 82.5825C103.209 85.2727 103.977 87.8985 105.368 90.2021C106.76 92.5057 108.726 94.408 111.074 95.7224V110.101C111.075 111.444 111.472 112.757 112.216 113.876C112.959 114.994 114.015 115.87 115.253 116.392V120.362H127.787L127.764 116.387Z" fill="#FDD1C2"/>
<path d="M132.221 167.623L148.4 158.803L143.191 146.774L124.928 156.728L132.221 167.623Z" fill="#E6E6E6"/>
<path d="M137.283 170.809L148.334 164.787L146.547 159.815L134.074 166.616L137.283 170.809Z" fill="#E6E6E6"/>
<path d="M110.772 167.623L94.5927 158.803L101.243 144.127L119.506 154.081L110.772 167.623Z" fill="#E6E6E6"/>
<path d="M105.71 170.809L94.6589 164.787L96.4455 159.815L108.919 166.616L105.71 170.809Z" fill="#E6E6E6"/>
<path d="M113.089 136.41L110.093 134.777L104.136 145.703L107.132 147.337L113.089 136.41Z" fill="#FFB727"/>
<path d="M113.624 150.866L116.62 152.499L122.577 141.573L119.581 139.939L113.624 150.866Z" fill="#FFB727"/>
<path d="M95.5805 160.363L94.5312 158.813L96.3699 154.483C89.8047 150.777 88.8924 136.097 88.8924 136.097L88.6277 110.252L78.5271 111.301L78.3947 123.765L78.5271 135.832L76.9531 143.309L72.8883 149.213L67.5095 153.675L62.9153 155.116L66.3278 171.91L74.9869 165.614L81.9397 162.201L86.6662 161.809L89.9465 162.726L95.5805 160.363Z" fill="url(#paint0_linear_1002_9480)"/>
<path d="M175.715 153.675L170.336 149.213L166.266 143.309L164.692 135.832L164.825 123.765L164.692 111.301L154.592 110.252L154.332 136.097C154.332 136.097 153.41 150.777 146.854 154.459L148.688 158.789L147.639 160.363L153.282 162.726L156.563 161.809L161.289 162.201L168.242 165.614L176.901 171.91L180.309 155.116L175.715 153.675Z" fill="url(#paint1_linear_1002_9480)"/>
<path d="M151.444 188.699V186.208L147.379 186.865L145.933 184.898L146.197 182.143L143.309 180.569L142.657 176.499L138.985 178.073L136.881 176.632L136.229 173.351L137.931 170.861L134.783 166.531L132.684 167.84L130.85 164.692L127.83 166.006L121.61 166.262L115.39 166.006L112.374 164.692L110.535 167.84L108.437 166.531L105.289 170.861L106.995 173.351L106.338 176.632L104.24 178.073L100.567 176.499L99.9101 180.569L97.0221 182.143L97.2868 184.898L95.8452 186.865L91.7756 186.208V188.699L89.677 191.194L87.4461 190.537V199.196H121.61H155.773V190.537L153.542 191.194L151.444 188.699Z" fill="url(#paint2_linear_1002_9480)"/>
<path d="M203.507 200.061C203.506 203.1 202.615 206.072 200.944 208.609C199.272 211.147 196.894 213.139 194.102 214.339C191.311 215.54 188.229 215.896 185.237 215.363C182.246 214.831 179.476 213.433 177.27 211.344L166.607 199.253L121.61 199.196L76.6128 199.253L65.9544 211.344C63.7491 213.438 60.9779 214.84 57.9839 215.375C54.9899 215.91 51.9047 215.555 49.1104 214.354C46.3162 213.153 43.9355 211.159 42.2634 208.618C40.5913 206.078 39.7011 203.103 39.7031 200.061H29.9475V231.498C31.1089 231.708 32.2272 232.11 33.2561 232.689C53.3345 241.693 75.4879 243.087 96.2612 235.458C104.485 232.296 113.277 229.059 121.61 229.238C129.933 229.059 138.739 232.296 146.963 235.458C167.731 243.078 189.89 241.693 209.968 232.689C210.997 232.11 212.115 231.707 213.277 231.498V200.061H203.507Z" fill="#E6E6E6"/>
<path d="M31.1433 229.238H67.6655C72.8907 229.237 77.9016 227.16 81.596 223.465C85.2904 219.77 87.3658 214.759 87.3658 209.533V190.627L83.9059 188.803V209.538C83.9009 213.844 82.1883 217.972 79.1437 221.016C76.0991 224.061 71.9712 225.773 67.6655 225.778H31.1433V229.238Z" fill="#E6E6E6"/>
<path d="M88.8972 110.441V134.887C88.8898 142.256 91.4862 149.39 96.2281 155.031L96.2942 155.06L101.243 144.132L104.14 145.71L110.096 134.783L113.092 136.418L107.137 147.346L113.612 150.877L119.582 139.939L122.579 141.575L116.618 152.503L119.516 154.081L112.322 165.236C114.922 165.917 117.599 166.262 120.286 166.262H122.725C125.403 166.263 128.07 165.921 130.661 165.245L124.956 156.738L143.215 146.774L146.76 155.031C151.505 149.393 154.1 142.256 154.086 134.887V110.441L140.322 108.55C146.197 116.708 147.8 129.928 147.8 129.928L126.596 126.232L124.876 127.145H118.112L116.387 126.237L95.1882 129.933C95.1882 129.933 96.7858 116.699 102.661 108.555L88.8972 110.441Z" fill="#FFB727"/>
<path d="M53.8828 181.372L65.9781 172.392L65.9308 172.326L62.7735 155.225C67.2747 154.057 71.2606 151.427 74.1058 147.749C76.9511 144.07 78.4945 139.551 78.494 134.901V111.882L57.6452 114.718C53.5328 115.387 49.5934 116.862 46.0539 119.059C42.5143 121.257 39.4445 124.133 37.0215 127.522C34.5985 130.911 32.8701 134.747 31.9358 138.807C31.0016 142.867 30.88 147.072 31.5782 151.179L39.7693 199.324L39.7409 199.154C39.7409 194.205 42.0239 190.707 45.6255 187.862L53.8828 181.372Z" fill="#FFB727"/>
<path d="M189.091 181.372L176.991 172.392L177.043 172.326L180.2 155.225C175.698 154.057 171.712 151.427 168.866 147.749C166.02 144.071 164.475 139.552 164.475 134.901V111.882L185.324 114.718C189.436 115.387 193.376 116.862 196.916 119.059C200.455 121.257 203.525 124.133 205.949 127.522C208.372 130.911 210.101 134.746 211.036 138.806C211.971 142.867 212.093 147.072 211.396 151.179L203.242 199.324L203.271 199.154C203.271 194.205 200.988 190.707 197.386 187.862L189.091 181.372Z" fill="#FFB727"/>
<path d="M83.7736 191.062L76.6885 199.196H83.7736V191.062Z" fill="#FFB727"/>
<path d="M159.219 191.062L166.299 199.196H159.219V191.062Z" fill="#FFB727"/>
<path d="M132.169 102.514V109.557C132.169 114.52 127.442 118.537 121.61 118.537C115.777 118.537 111.051 114.52 111.051 109.557V102.514C99.8959 102.514 95.1882 129.928 95.1882 129.928L116.387 126.232L118.112 127.14H125.107L126.833 126.232L148.036 129.928C148.036 129.928 143.328 102.514 132.169 102.514Z" fill="#FFB727"/>
<path d="M111.074 103.606C110.332 103.876 109.615 104.208 108.928 104.599C108.265 104.972 107.649 105.424 107.094 105.946C106.03 107.017 105.12 108.23 104.391 109.552C104.329 109.658 104.245 109.749 104.146 109.821C104.047 109.892 103.934 109.943 103.814 109.968L103.625 110.011C97.2821 111.381 90.9154 112.587 84.5251 113.627C78.1348 114.666 71.7303 115.591 65.3116 116.401L60.4953 116.978L58.08 117.247L56.9882 117.413C56.6148 117.483 56.2414 117.54 55.8727 117.625C52.8896 118.231 50.0086 119.261 47.3176 120.683C41.7286 123.684 37.0559 128.141 33.7949 133.582C35.7287 127.091 39.87 121.481 45.5026 117.72C46.9262 116.759 48.4265 115.916 49.9881 115.201C51.5601 114.485 53.1864 113.895 54.8518 113.438C55.2677 113.319 55.6931 113.234 56.109 113.13C56.525 113.026 56.9834 112.946 57.4088 112.866L59.8052 112.483L64.6121 111.764C71.0276 110.819 77.4573 110.012 83.9012 109.344C90.3482 108.664 96.8142 108.125 103.304 107.77L102.538 108.243C103.606 106.937 104.884 105.819 106.319 104.934C107.049 104.521 107.829 104.204 108.64 103.989C109.436 103.778 110.252 103.65 111.074 103.606Z" fill="white"/>
<path d="M131.937 103.606C132.751 103.643 133.558 103.762 134.348 103.961C135.157 104.174 135.936 104.492 136.664 104.906C138.1 105.79 139.378 106.908 140.445 108.215L139.679 107.742C146.169 108.096 152.635 108.635 159.058 109.316C165.482 109.997 171.933 110.805 178.347 111.736L183.183 112.492L185.584 112.875C186.004 112.955 186.453 113.045 186.879 113.14C187.304 113.234 187.725 113.329 188.141 113.447C189.806 113.903 191.432 114.489 193.004 115.201C194.565 115.916 196.063 116.759 197.485 117.72C203.12 121.479 207.264 127.09 209.198 133.582C205.938 128.142 201.267 123.685 195.68 120.683C192.987 119.261 190.104 118.232 187.12 117.625C186.751 117.54 186.378 117.483 186.009 117.413L184.917 117.247L182.502 116.978L177.719 116.401C171.3 115.598 164.897 114.673 158.51 113.627C152.123 112.58 145.755 111.375 139.405 110.011L139.221 109.968C139.101 109.942 138.988 109.892 138.889 109.82C138.79 109.749 138.707 109.658 138.644 109.552C137.915 108.23 137.005 107.017 135.941 105.946C135.386 105.424 134.771 104.972 134.107 104.599C133.413 104.207 132.687 103.875 131.937 103.606Z" fill="white"/>
<path d="M211.849 229.238H175.327C170.102 229.237 165.091 227.16 161.397 223.465C157.702 219.77 155.627 214.759 155.627 209.533V190.627L159.087 188.803V209.538C159.09 213.844 160.803 217.973 163.847 221.018C166.892 224.062 171.021 225.775 175.327 225.778H211.849V229.238Z" fill="#E6E6E6"/>
<path d="M100.369 56.61C100.369 45.824 109.822 37.0752 121.496 37.0752C133.171 37.0752 142.624 45.824 142.624 56.61L142.761 56.4635C144.548 58.1131 145.564 59.999 145.564 61.9983C145.564 68.5163 134.787 73.8147 121.496 73.8147C108.205 73.8147 97.4286 68.5257 97.4286 61.9983C97.4286 59.999 98.4448 58.1131 100.231 56.4635" fill="#FFB727"/>
<path d="M111.051 81.226C112.152 81.226 113.045 80.0452 113.045 78.5886C113.045 77.132 112.152 75.9511 111.051 75.9511C109.949 75.9511 109.056 77.132 109.056 78.5886C109.056 80.0452 109.949 81.226 111.051 81.226Z" fill="black"/>
<path d="M131.824 81.226C132.925 81.226 133.818 80.0452 133.818 78.5886C133.818 77.132 132.925 75.9511 131.824 75.9511C130.722 75.9511 129.829 77.132 129.829 78.5886C129.829 80.0452 130.722 81.226 131.824 81.226Z" fill="black"/>
<path d="M142.624 59.7343C142.449 58.3163 142.298 56.8984 142.005 55.5749C141.082 51.6227 138.949 48.057 135.903 45.375C133.933 43.6272 131.653 42.263 129.182 41.3527C126.72 40.4499 124.118 39.9906 121.496 39.9962L119.535 40.0812L117.592 40.3412L115.702 40.7571L113.811 41.3574C111.339 42.2645 109.059 43.6273 107.09 45.375C105.089 47.1492 103.468 49.3101 102.325 51.7275C101.747 52.9626 101.3 54.2554 100.992 55.5844C100.695 56.922 100.543 58.3305 100.369 59.7437C100.279 59.0395 100.189 58.3258 100.132 57.6262L100.085 56.5486C100.061 56.1882 100.061 55.8266 100.085 55.4662C100.142 54.0025 100.387 52.5522 100.813 51.1509C101.684 48.2834 103.212 45.6584 105.275 43.4844C107.352 41.2893 109.869 39.5578 112.662 38.4033C118.321 36.0749 124.671 36.0749 130.33 38.4033C133.121 39.5591 135.637 41.2905 137.713 43.4844C139.773 45.6489 141.302 48.2619 142.18 51.1178C142.606 52.5192 142.851 53.9695 142.908 55.4331C142.934 55.7934 142.934 56.1552 142.908 56.5155L142.86 57.5932C142.799 58.3258 142.714 59.03 142.624 59.7343Z" fill="white"/>
<path d="M118.112 91.9647C120.395 91.9647 122.465 93.2362 124.762 93.2125C124.96 93.2125 125.15 93.1339 125.29 92.9938C125.43 92.8538 125.509 92.6638 125.509 92.4658C125.509 92.2677 125.43 92.0777 125.29 91.9377C125.15 91.7976 124.96 91.719 124.762 91.719C122.479 91.719 120.409 90.4522 118.112 90.4759C117.153 90.4853 117.153 91.9789 118.112 91.9647Z" fill="black"/>
<path d="M137.893 67.5899C137.979 67.5436 138.056 67.4808 138.118 67.4049C138.181 67.3291 138.227 67.2417 138.256 67.1477C138.284 67.0538 138.294 66.9552 138.284 66.8575C138.275 66.7598 138.246 66.665 138.2 66.5784C138.154 66.4918 138.091 66.4152 138.015 66.3529C137.939 66.2906 137.852 66.2438 137.758 66.2153C137.664 66.1867 137.565 66.177 137.468 66.1866C137.37 66.1962 137.275 66.2249 137.188 66.2711C134.863 67.5095 129.735 69.5797 121.496 69.5797C113.433 69.5797 108.338 67.5757 106.022 66.3751C105.845 66.2842 105.64 66.267 105.452 66.3273C105.263 66.3876 105.106 66.5204 105.015 66.6965C104.924 66.8727 104.907 67.0777 104.967 67.2665C105.027 67.4553 105.16 67.6124 105.336 67.7033C109.548 69.8775 115.262 71.0733 121.496 71.0733C130.061 71.0875 135.444 68.8991 137.893 67.5899Z" fill="black"/>
<path d="M175.327 226.521H211.849C212.047 226.521 212.237 226.442 212.377 226.302C212.517 226.162 212.596 225.972 212.596 225.774C212.596 225.576 212.517 225.386 212.377 225.246C212.237 225.106 212.047 225.027 211.849 225.027H175.327C171.219 225.022 167.281 223.388 164.377 220.483C161.472 217.579 159.838 213.641 159.833 209.533V200.08H166.101L176.499 211.845L176.532 211.878C178.843 214.07 181.746 215.537 184.881 216.097C188.017 216.657 191.248 216.285 194.174 215.027C197.101 213.77 199.594 211.682 201.346 209.022C203.098 206.362 204.032 203.246 204.031 200.061H211.859C212.057 200.061 212.247 199.983 212.387 199.842C212.527 199.702 212.605 199.512 212.605 199.314C212.605 199.116 212.527 198.926 212.387 198.786C212.247 198.646 212.057 198.568 211.859 198.568H204.102L212.138 151.302C212.854 147.095 212.73 142.787 211.773 138.628C210.816 134.469 209.046 130.541 206.563 127.069C204.08 123.598 200.935 120.653 197.308 118.403C193.682 116.153 189.645 114.644 185.432 113.962L140.771 107.818C138.654 104.982 136.002 102.737 132.689 101.876V96.0768C135.015 94.6645 136.949 92.6896 138.312 90.3339C139.675 87.9782 140.423 85.3174 140.488 82.5967L140.525 80.9518C144.056 80.4792 147.549 76.5703 147.549 72.86C147.549 69.4757 146.037 67.6986 144.307 67.0227C145.557 65.6429 146.27 63.8598 146.315 61.9983C146.315 59.8856 145.29 57.8153 143.357 56.0003C143.087 47.6249 137.316 40.5114 129.286 37.6613C129.238 37.6367 129.187 37.6177 129.134 37.6045C124.186 35.903 118.811 35.903 113.863 37.6045C113.811 37.6185 113.76 37.6375 113.712 37.6613C105.676 40.4972 99.9148 47.6249 99.6454 56.0003C97.7122 57.8153 96.6865 59.8856 96.6865 61.9983C96.7308 63.8486 97.4349 65.6222 98.6717 66.999C96.9276 67.6513 95.3347 69.4238 95.3347 72.86C95.3347 76.5703 98.8324 80.4839 102.363 80.9518L102.396 82.6014C102.462 85.3447 103.223 88.0266 104.607 90.3963C105.99 92.7661 107.952 94.7464 110.308 96.1525V101.919C107 102.779 104.348 105.01 102.231 107.86L57.5506 114.005C53.3391 114.688 49.3046 116.199 45.6798 118.449C42.055 120.7 38.9115 123.645 36.4307 127.117C33.9499 130.588 32.1808 134.516 31.2254 138.674C30.2701 142.832 30.1474 147.139 30.8644 151.345L38.8996 198.61H31.1433C30.9452 198.61 30.7553 198.689 30.6152 198.829C30.4752 198.969 30.3965 199.159 30.3965 199.357C30.3965 199.555 30.4752 199.745 30.6152 199.885C30.7553 200.025 30.9452 200.104 31.1433 200.104H38.9705C38.9711 203.288 39.905 206.402 41.6568 209.061C43.4086 211.72 45.9014 213.808 48.8269 215.065C51.7525 216.322 54.9823 216.694 58.1171 216.136C61.252 215.577 64.1542 214.111 66.4649 211.92L66.498 211.887L76.8728 200.123H83.1449V209.576C83.1399 213.683 81.506 217.621 78.6014 220.526C75.6969 223.43 71.7589 225.064 67.6513 225.069H31.1433C30.9452 225.069 30.7553 225.148 30.6152 225.288C30.4752 225.428 30.3965 225.618 30.3965 225.816C30.3965 226.014 30.4752 226.204 30.6152 226.344C30.7553 226.484 30.9452 226.563 31.1433 226.563H67.6654C72.1684 226.556 76.4849 224.763 79.669 221.579C82.8531 218.395 84.6452 214.079 84.6527 209.576V189.757L86.6189 191.01V209.533C86.6139 214.559 84.6156 219.377 81.0624 222.932C77.5091 226.486 72.6911 228.485 67.6654 228.491H31.1433C31.0405 228.483 30.9372 228.496 30.8398 228.53C30.7424 228.564 30.653 228.617 30.5773 228.687C30.5016 228.757 30.4411 228.842 30.3998 228.936C30.3585 229.031 30.3371 229.133 30.3371 229.236C30.3371 229.339 30.3585 229.441 30.3998 229.535C30.4411 229.63 30.5016 229.715 30.5773 229.785C30.653 229.855 30.7424 229.908 30.8398 229.942C30.9372 229.975 31.0405 229.989 31.1433 229.98H67.6654C73.0864 229.974 78.2836 227.818 82.1168 223.985C85.95 220.151 88.1063 214.954 88.1125 209.533V200.08H154.88V209.533C154.885 214.955 157.041 220.153 160.874 223.986C164.708 227.82 169.906 229.975 175.327 229.98H211.849C211.952 229.989 212.055 229.975 212.153 229.942C212.25 229.908 212.339 229.855 212.415 229.785C212.491 229.715 212.551 229.63 212.593 229.535C212.634 229.441 212.655 229.339 212.655 229.236C212.655 229.133 212.634 229.031 212.593 228.936C212.551 228.842 212.491 228.757 212.415 228.687C212.339 228.617 212.25 228.564 212.153 228.53C212.055 228.496 211.952 228.483 211.849 228.491H175.327C170.301 228.485 165.483 226.486 161.93 222.932C158.377 219.377 156.379 214.559 156.374 209.533V191.01L158.34 189.757V209.533C158.347 214.036 160.139 218.353 163.324 221.537C166.508 224.721 170.824 226.513 175.327 226.521ZM159.833 198.577V192.962L164.787 198.577H159.833ZM154.837 111.296L163.728 112.516V134.887C163.729 139.581 165.248 144.148 168.059 147.907C170.871 151.666 174.823 154.414 179.326 155.74L176.49 171.087L166.933 163.998C165.123 162.502 162.956 161.504 160.644 161.101C158.331 160.699 155.954 160.905 153.746 161.7C153.703 161.679 153.659 161.662 153.613 161.648L147.7 160.06L148.759 159.484C148.921 159.394 149.044 159.249 149.105 159.074C149.166 158.9 149.161 158.709 149.09 158.538L147.629 155.168C152.287 149.445 154.834 142.294 154.842 134.915L154.837 111.296ZM151.656 162.646L151.604 162.674L148.924 164.22L148.003 161.667L151.656 162.646ZM146.051 72.86C146.051 75.6959 143.253 78.9194 140.544 79.4299L140.625 75.5919C140.721 75.5456 140.806 75.4796 140.875 75.3981C141.515 74.642 142.243 73.9659 143.045 73.3846C143.208 73.2718 143.319 73.0989 143.355 72.9039C143.39 72.7088 143.347 72.5077 143.234 72.3448C143.121 72.1818 142.948 72.0703 142.753 72.0349C142.558 71.9994 142.357 72.0429 142.194 72.1557C141.654 72.5442 141.144 72.9724 140.667 73.4366L140.738 70.0051C141.576 69.4856 142.366 68.8941 143.101 68.2374C144.959 68.5352 146.051 70.2462 146.051 72.86ZM96.8189 72.86C96.8189 70.1847 97.9485 68.4784 99.8486 68.2232C100.561 68.861 101.328 69.4351 102.141 69.9389L102.207 73.4461C101.729 72.9774 101.215 72.5461 100.671 72.1557C100.508 72.0543 100.312 72.0195 100.124 72.0588C99.936 72.098 99.7703 72.2081 99.6614 72.3663C99.5525 72.5245 99.5087 72.7186 99.5392 72.9082C99.5696 73.0979 99.672 73.2685 99.825 73.3846C100.624 73.9685 101.353 74.6443 101.994 75.3981C102.064 75.4825 102.151 75.5503 102.25 75.5966L102.325 79.4299C99.617 78.9336 96.8236 75.7101 96.8236 72.86H96.8189ZM98.1707 61.9889C98.2058 60.6001 98.7163 59.2653 99.617 58.2076V58.477C99.617 58.6751 99.6957 58.865 99.8357 59.0051C99.9758 59.1452 100.166 59.2238 100.364 59.2238C100.562 59.2238 100.752 59.1452 100.892 59.0051C101.032 58.865 101.111 58.6751 101.111 58.477V56.5864C101.111 48.9199 106.121 42.3122 113.281 39.3959V45.2001C113.281 46.0776 113.63 46.9192 114.251 47.5397C114.871 48.1601 115.713 48.5087 116.59 48.5087C116.788 48.5087 116.978 48.43 117.118 48.29C117.258 48.1499 117.337 47.96 117.337 47.7619C117.337 47.5639 117.258 47.3739 117.118 47.2339C116.978 47.0938 116.788 47.0151 116.59 47.0151C116.105 47.0151 115.639 46.8226 115.295 46.4797C114.951 46.1368 114.757 45.6715 114.756 45.1859V38.876C119.122 37.4707 123.819 37.4707 128.184 38.876V45.2001C128.183 45.6849 127.99 46.1494 127.647 46.4922C127.304 46.8349 126.84 47.0281 126.355 47.0293C126.257 47.0293 126.16 47.0486 126.069 47.0861C125.979 47.1237 125.896 47.1787 125.827 47.248C125.758 47.3174 125.703 47.3997 125.665 47.4903C125.628 47.5809 125.608 47.678 125.608 47.7761C125.608 47.8742 125.628 47.9713 125.665 48.0619C125.703 48.1525 125.758 48.2348 125.827 48.3042C125.896 48.3735 125.979 48.4285 126.069 48.466C126.16 48.5036 126.257 48.5229 126.355 48.5229C127.233 48.5229 128.074 48.1743 128.695 47.5538C129.315 46.9334 129.664 46.0918 129.664 45.2143V39.4195C136.824 42.3358 141.839 48.9436 141.839 56.61V58.5007C141.831 58.6034 141.844 58.7067 141.878 58.8042C141.912 58.9016 141.965 58.9909 142.035 59.0667C142.105 59.1424 142.19 59.2028 142.284 59.2442C142.379 59.2855 142.481 59.3068 142.584 59.3068C142.687 59.3068 142.789 59.2855 142.883 59.2442C142.978 59.2028 143.063 59.1424 143.132 59.0667C143.202 58.9909 143.256 58.9016 143.29 58.8042C143.323 58.7067 143.336 58.6034 143.328 58.5007V58.2265C144.231 59.2834 144.743 60.6183 144.779 62.0078C144.779 64.5838 142.889 66.9565 139.774 68.8377C139.64 68.8741 139.518 68.9479 139.424 69.0504C135.142 71.5034 128.676 73.0679 121.463 73.0679C108.635 73.0585 98.1754 68.0956 98.1754 61.9983L98.1707 61.9889ZM103.88 82.5589L103.649 70.7897C107.61 72.8458 112.984 74.1976 119.062 74.4812C120.448 77.2826 121.011 80.4192 120.688 83.5278C120.689 83.7255 120.768 83.9147 120.908 84.0545C121.048 84.1943 121.237 84.2734 121.435 84.2746C121.631 84.2698 121.819 84.1896 121.958 84.0506C122.097 83.9115 122.177 83.7244 122.182 83.5278C122.276 82.4264 122.265 81.3185 122.149 80.2192C121.985 78.2645 121.506 76.349 120.731 74.5473H121.482C128.501 74.5473 134.745 73.1294 139.221 70.8465L138.975 82.5589C138.901 85.6643 137.848 88.667 135.966 91.1386C134.084 93.6102 131.47 95.4245 128.496 96.3226L126.261 96.9985C123.107 97.9581 119.739 97.9581 116.585 96.9985L114.383 96.3274C111.406 95.4328 108.789 93.6206 106.903 91.1497C105.018 88.6788 103.962 85.6754 103.885 82.5683L103.88 82.5589ZM89.644 111.074L101.092 109.5C95.9917 117.625 94.5312 129.116 94.4461 129.825C94.4326 129.93 94.4418 130.036 94.473 130.138C94.5042 130.239 94.5567 130.332 94.627 130.411C94.6973 130.491 94.7838 130.554 94.8806 130.597C94.9774 130.64 95.0823 130.662 95.1882 130.661H95.3158L116.273 127.012L117.776 127.797C117.864 127.85 117.961 127.885 118.062 127.899C118.163 127.913 118.266 127.907 118.364 127.88C118.463 127.853 118.554 127.806 118.634 127.742C118.714 127.678 118.779 127.598 118.827 127.508C118.874 127.417 118.903 127.318 118.911 127.217C118.918 127.115 118.905 127.012 118.872 126.916C118.839 126.819 118.786 126.731 118.717 126.656C118.648 126.58 118.564 126.52 118.471 126.478L116.746 125.571C116.6 125.496 116.434 125.472 116.273 125.5L96.0768 129.035C96.7811 124.559 100.241 106.527 110.304 103.512V110.129C110.303 111.619 110.743 113.077 111.568 114.318C112.393 115.559 113.566 116.529 114.941 117.105C115.031 117.145 115.13 117.164 115.229 117.162C115.397 117.158 115.559 117.097 115.688 116.989C115.817 116.881 115.905 116.733 115.938 116.568C115.972 116.403 115.949 116.232 115.872 116.082C115.795 115.933 115.67 115.813 115.517 115.744C114.414 115.281 113.473 114.502 112.811 113.506C112.149 112.509 111.796 111.339 111.797 110.143V102.581V97.0033C112.489 97.3277 113.203 97.6026 113.934 97.8257L116.165 98.5016C119.602 99.5477 123.272 99.5477 126.71 98.5016L128.945 97.8257C129.714 97.5901 130.465 97.2979 131.19 96.9513V102.581V110.143C131.191 111.339 130.839 112.509 130.177 113.506C129.515 114.502 128.574 115.281 127.471 115.744C127.321 115.817 127.2 115.937 127.127 116.086C127.053 116.235 127.032 116.404 127.065 116.567C127.099 116.73 127.186 116.877 127.312 116.984C127.439 117.092 127.598 117.155 127.764 117.162C127.863 117.164 127.961 117.145 128.052 117.105C129.425 116.528 130.598 115.558 131.422 114.317C132.246 113.076 132.685 111.619 132.684 110.129V103.512C142.742 106.541 146.207 124.578 146.916 129.035L126.733 125.519C126.572 125.491 126.406 125.515 126.261 125.59L124.535 126.497C124.442 126.539 124.359 126.599 124.29 126.674C124.221 126.75 124.168 126.838 124.135 126.935C124.101 127.031 124.088 127.134 124.096 127.235C124.104 127.337 124.132 127.436 124.18 127.527C124.228 127.617 124.293 127.697 124.373 127.761C124.452 127.825 124.544 127.871 124.643 127.899C124.741 127.926 124.844 127.932 124.945 127.918C125.046 127.904 125.143 127.869 125.23 127.816L126.729 127.031L147.681 130.685H147.809C147.915 130.686 148.02 130.664 148.117 130.621C148.213 130.578 148.3 130.514 148.37 130.435C148.441 130.356 148.493 130.262 148.524 130.161C148.555 130.06 148.565 129.953 148.551 129.848C148.466 129.144 147.001 117.654 141.906 109.524L153.344 111.074V134.863C153.34 141.632 151.093 148.21 146.954 153.566L143.877 146.476C143.835 146.381 143.775 146.295 143.698 146.224C143.622 146.154 143.532 146.1 143.434 146.066C143.335 146.032 143.231 146.019 143.127 146.028C143.024 146.037 142.923 146.067 142.832 146.117L124.569 156.071C124.478 156.121 124.399 156.189 124.336 156.27C124.273 156.351 124.226 156.444 124.2 156.544C124.176 156.645 124.173 156.75 124.192 156.853C124.211 156.955 124.25 157.053 124.309 157.139L129.413 164.768C127.215 165.261 124.969 165.51 122.716 165.51H120.277C118 165.51 115.729 165.257 113.508 164.754L120.126 154.483C120.181 154.396 120.219 154.299 120.235 154.198C120.251 154.096 120.246 153.992 120.22 153.892C120.194 153.793 120.149 153.7 120.086 153.619C120.024 153.538 119.945 153.47 119.856 153.42L117.625 152.195L123.226 141.924C123.318 141.75 123.339 141.546 123.283 141.356C123.227 141.166 123.1 141.006 122.928 140.908L119.927 139.278C119.841 139.23 119.747 139.2 119.649 139.19C119.552 139.179 119.453 139.188 119.359 139.216C119.265 139.243 119.178 139.289 119.101 139.351C119.025 139.413 118.962 139.489 118.916 139.575L113.315 149.846L108.148 147.01L113.749 136.739C113.844 136.566 113.865 136.362 113.81 136.172C113.754 135.983 113.625 135.823 113.452 135.728L110.455 134.093C110.369 134.045 110.274 134.015 110.176 134.005C110.078 133.994 109.979 134.003 109.885 134.03C109.791 134.058 109.703 134.104 109.626 134.166C109.549 134.228 109.486 134.304 109.439 134.39L103.843 144.69L101.621 143.47C101.531 143.421 101.431 143.391 101.329 143.382C101.226 143.373 101.123 143.385 101.026 143.418C100.928 143.45 100.838 143.501 100.761 143.57C100.685 143.638 100.624 143.722 100.581 143.815L96.1193 153.665C91.9411 148.295 89.6695 141.686 89.6629 134.882L89.644 111.074ZM142.742 161.043L133.729 165.959L132.476 166.644L131.361 164.981C131.32 164.87 131.254 164.771 131.167 164.692L126.015 156.993L142.846 147.819L147.469 158.472L142.742 161.043ZM147.426 164.437L137.5 169.849L135.18 166.848L143.64 162.235L146.122 160.883L147.426 164.437ZM106.678 164.536L95.5711 158.482L101.607 145.167L103.795 146.358L106.792 147.993L113.267 151.524L116.273 153.141L118.462 154.332L110.54 166.621L109.297 165.94L106.678 164.536ZM107.808 166.852L105.516 169.849L95.59 164.437L96.8661 160.887L99.3476 162.239L107.808 166.852ZM105.166 145.403L110.408 135.789L112.095 136.706L106.82 146.325L106.381 146.084L105.166 145.403ZM114.643 150.569L119.884 140.956L121.572 141.873L116.325 151.491L116.169 151.406L114.643 150.569ZM79.2739 112.516L88.1693 111.296V134.882C88.173 142.29 90.736 149.47 95.4245 155.206L93.9262 158.515C93.8548 158.684 93.848 158.874 93.9072 159.048C93.9665 159.223 94.0876 159.369 94.2476 159.46L95.3111 160.037L89.384 161.648C89.3318 161.662 89.2812 161.681 89.2327 161.705C87.0237 160.91 84.6456 160.703 82.3325 161.106C80.0195 161.509 77.8511 162.507 76.0409 164.002L66.4838 171.092L63.6479 155.745C68.1504 154.418 72.1027 151.67 74.9141 147.912C77.7255 144.153 79.245 139.585 79.2455 134.891L79.2739 112.516ZM95.0039 161.648L94.0586 164.224L91.3786 162.674L91.3219 162.646L95.0039 161.648ZM83.1875 198.558H78.2057L83.1591 192.943L83.1875 198.558ZM87.8242 190.008L82.7668 186.794C82.5995 186.687 82.3966 186.651 82.2029 186.694C82.0093 186.737 81.8406 186.856 81.7341 187.023C81.6275 187.19 81.5918 187.393 81.6348 187.587C81.6778 187.781 81.7959 187.949 81.9633 188.056L83.1591 188.812V190.703L76.1354 198.667C75.9752 198.751 75.8509 198.89 75.7857 199.059L65.4203 210.805C63.3193 212.791 60.6824 214.117 57.8356 214.621C54.9888 215.125 52.0568 214.783 49.402 213.639C46.7471 212.494 44.4857 210.597 42.8973 208.182C41.3088 205.766 40.4629 202.938 40.4641 200.047C40.4641 199.877 40.4641 199.711 40.4641 199.541C40.4641 199.518 40.4641 199.494 40.4641 199.47C40.466 199.45 40.466 199.429 40.4641 199.409C40.4666 199.379 40.4666 199.349 40.4641 199.319C40.4641 199.319 40.4641 199.277 40.4641 199.258C40.4662 199.236 40.4662 199.214 40.4641 199.192V199.116C40.5957 197.042 41.165 195.019 42.1344 193.18C43.1038 191.341 44.4515 189.729 46.0887 188.448C46.2441 188.323 46.3434 188.141 46.3647 187.942C46.3859 187.744 46.3275 187.545 46.2021 187.389C46.0768 187.234 45.8948 187.135 45.6962 187.113C45.4977 187.092 45.2988 187.151 45.1434 187.276C42.6344 189.253 40.7649 191.926 39.7693 194.961L32.3297 151.066C31.6489 147.056 31.7679 142.952 32.6797 138.989C33.5914 135.026 35.278 131.282 37.6423 127.973C40.0066 124.664 43.002 121.856 46.456 119.709C49.91 117.563 53.7544 116.12 57.768 115.465L77.7661 112.724V134.887C77.7681 139.372 76.2799 143.731 73.5354 147.279C70.7908 150.827 66.9454 153.363 62.6033 154.488H62.556L62.4851 154.516L62.4189 154.549L62.3622 154.587L62.3008 154.634L62.2535 154.681L62.2015 154.738L62.1637 154.795L62.1259 154.856L62.0975 154.923C62.0975 154.923 62.0975 154.965 62.0975 154.989V155.06C62.0952 155.083 62.0952 155.107 62.0975 155.131C62.0951 155.156 62.0951 155.181 62.0975 155.206C62.0975 155.23 62.0975 155.253 62.0975 155.282C62.0999 155.297 62.0999 155.313 62.0975 155.329L65.1887 172.066L53.4952 180.758C53.3667 180.853 53.272 180.986 53.225 181.139C53.178 181.292 53.1811 181.455 53.234 181.606C53.2869 181.757 53.3867 181.887 53.5188 181.976C53.6509 182.066 53.8083 182.111 53.9679 182.105C54.1067 182.097 54.2408 182.051 54.3554 181.973L76.9389 165.184C78.8256 163.614 81.1476 162.659 83.593 162.448C86.0383 162.237 88.4897 162.779 90.6176 164.002L105.242 172.444C105.798 172.768 106.204 173.299 106.37 173.922C106.536 174.544 106.448 175.207 106.126 175.765C105.804 176.323 105.274 176.731 104.652 176.898C104.03 177.066 103.366 176.98 102.807 176.66L97.7689 173.753C97.684 173.697 97.5884 173.659 97.4882 173.641C97.3879 173.623 97.285 173.625 97.1859 173.649C97.0867 173.672 96.9933 173.715 96.9115 173.776C96.8297 173.837 96.7612 173.914 96.7102 174.002C96.6592 174.09 96.6267 174.188 96.6148 174.289C96.603 174.39 96.6119 174.492 96.6411 174.59C96.6703 174.688 96.7192 174.778 96.7847 174.856C96.8503 174.934 96.931 174.998 97.0221 175.044L98.8702 176.112C99.4243 176.435 99.8287 176.963 99.9959 177.583C100.163 178.202 100.08 178.862 99.7635 179.42C99.4395 179.973 98.911 180.377 98.2921 180.544C97.6731 180.711 97.0134 180.628 96.4549 180.314L94.6068 179.241C94.4351 179.142 94.2311 179.115 94.0396 179.166C93.8481 179.218 93.6849 179.343 93.5859 179.515C93.4869 179.687 93.4601 179.891 93.5115 180.082C93.5629 180.274 93.6883 180.437 93.86 180.536L95.7081 181.604C95.9861 181.763 96.2298 181.976 96.4254 182.229C96.621 182.483 96.7646 182.773 96.8481 183.082C96.9314 183.391 96.953 183.714 96.9114 184.032C96.8699 184.349 96.766 184.656 96.6059 184.933C96.4457 185.21 96.2324 185.454 95.9781 185.648C95.7238 185.843 95.4336 185.986 95.124 186.068C94.8145 186.151 94.4917 186.171 94.1743 186.129C93.8568 186.086 93.5508 185.981 93.2739 185.82L91.4259 184.752L90.9532 184.492C90.8709 184.415 90.7723 184.358 90.6648 184.325C90.5573 184.292 90.4437 184.283 90.3325 184.3C90.2212 184.317 90.1153 184.359 90.0224 184.422C89.9296 184.486 89.8523 184.57 89.7964 184.667C89.7405 184.765 89.7073 184.874 89.6994 184.986C89.6915 185.098 89.7091 185.211 89.7507 185.315C89.7924 185.42 89.8572 185.514 89.9402 185.589C90.0232 185.665 90.1223 185.722 90.23 185.754C90.786 186.078 91.1919 186.607 91.3597 187.229C91.484 187.691 91.4691 188.18 91.3169 188.634C91.1647 189.088 90.882 189.487 90.5041 189.781C90.1262 190.075 89.6699 190.252 89.1924 190.288C88.7149 190.324 88.2373 190.218 87.8195 189.984L87.8242 190.008ZM154.88 198.582H88.1125V191.695C88.4049 191.768 88.7047 191.806 89.0059 191.809C89.6964 191.809 90.3748 191.627 90.973 191.282C91.5712 190.937 92.068 190.44 92.4137 189.842C92.8632 189.067 93.0302 188.16 92.8864 187.276C93.614 187.611 94.4271 187.716 95.216 187.575C96.0048 187.434 96.7316 187.055 97.2982 186.488C97.8648 185.922 98.2441 185.195 98.3849 184.406C98.5257 183.617 98.4212 182.804 98.0856 182.077C98.7037 182.015 99.2981 181.807 99.82 181.47C100.342 181.133 100.776 180.677 101.087 180.139C101.529 179.373 101.696 178.479 101.56 177.605L102.084 177.908C102.959 178.374 103.977 178.492 104.935 178.24C105.893 177.987 106.72 177.381 107.25 176.544C107.78 175.707 107.975 174.701 107.794 173.726C107.614 172.752 107.072 171.882 106.277 171.291L106.3 171.262L109.136 167.576L110.412 168.266C110.523 168.325 110.646 168.356 110.772 168.355C110.897 168.356 111.02 168.325 111.13 168.266C111.24 168.206 111.333 168.12 111.4 168.015L112.653 166.072C115.148 166.685 117.708 166.994 120.277 166.994H122.716C125.264 166.991 127.802 166.685 130.278 166.082L131.578 168.025C131.682 168.179 131.84 168.289 132.021 168.333C132.202 168.378 132.392 168.354 132.556 168.266L133.851 167.561L136.687 171.248L136.711 171.276C135.896 171.835 135.322 172.682 135.105 173.646C134.887 174.61 135.042 175.621 135.539 176.476C135.793 176.922 136.132 177.313 136.538 177.628C136.943 177.943 137.407 178.174 137.902 178.31C138.237 178.398 138.582 178.442 138.928 178.442C139.615 178.443 140.29 178.262 140.885 177.917L141.405 177.615C141.263 178.567 141.477 179.539 142.006 180.344C142.536 181.148 143.343 181.73 144.274 181.977C144.476 182.032 144.683 182.069 144.893 182.086C144.557 182.814 144.453 183.627 144.593 184.416C144.734 185.205 145.114 185.931 145.68 186.498C146.247 187.065 146.973 187.444 147.762 187.585C148.551 187.725 149.364 187.621 150.092 187.285C149.991 187.921 150.048 188.572 150.259 189.18C150.469 189.788 150.827 190.335 151.3 190.772C151.772 191.208 152.346 191.522 152.969 191.684C153.592 191.846 154.245 191.851 154.87 191.7L154.88 198.582ZM155.197 189.994C154.918 190.153 154.611 190.257 154.293 190.298C153.974 190.339 153.651 190.317 153.341 190.233C153.031 190.15 152.741 190.005 152.487 189.809C152.233 189.613 152.02 189.369 151.86 189.091C151.7 188.812 151.596 188.505 151.555 188.187C151.514 187.869 151.536 187.545 151.62 187.235C151.704 186.926 151.848 186.635 152.044 186.381C152.24 186.127 152.484 185.914 152.762 185.754C152.934 185.654 153.058 185.491 153.109 185.299C153.159 185.108 153.131 184.904 153.032 184.733C152.984 184.648 152.919 184.573 152.842 184.512C152.765 184.452 152.676 184.408 152.581 184.383C152.487 184.357 152.388 184.351 152.291 184.364C152.194 184.377 152.1 184.409 152.016 184.459L151.567 184.714L149.714 185.782C149.155 186.103 148.492 186.188 147.87 186.021C147.248 185.853 146.718 185.445 146.395 184.887C146.073 184.329 145.986 183.667 146.151 183.044C146.317 182.422 146.723 181.89 147.28 181.566L149.132 180.498C149.217 180.449 149.292 180.384 149.352 180.306C149.412 180.228 149.456 180.139 149.481 180.044C149.506 179.949 149.513 179.851 149.5 179.753C149.487 179.656 149.456 179.562 149.407 179.477C149.358 179.392 149.292 179.317 149.214 179.258C149.137 179.198 149.048 179.154 148.953 179.129C148.858 179.103 148.759 179.097 148.662 179.109C148.565 179.122 148.471 179.154 148.386 179.203L146.523 180.299C145.964 180.622 145.299 180.709 144.675 180.542C144.051 180.374 143.519 179.966 143.196 179.406C142.873 178.846 142.786 178.181 142.953 177.557C143.121 176.933 143.53 176.401 144.089 176.079L145.942 175.01C146.033 174.965 146.114 174.901 146.179 174.823C146.245 174.745 146.294 174.654 146.323 174.557C146.352 174.459 146.361 174.357 146.349 174.256C146.337 174.154 146.305 174.057 146.254 173.969C146.203 173.88 146.134 173.804 146.053 173.743C145.971 173.682 145.877 173.639 145.778 173.616C145.679 173.592 145.576 173.59 145.476 173.608C145.376 173.626 145.28 173.664 145.195 173.72L140.157 176.627C139.598 176.947 138.935 177.033 138.313 176.865C137.691 176.697 137.16 176.29 136.838 175.732C136.516 175.174 136.428 174.511 136.594 173.889C136.76 173.266 137.166 172.735 137.723 172.411L152.342 163.969C154.47 162.746 156.921 162.204 159.366 162.415C161.812 162.626 164.134 163.581 166.02 165.151L188.647 181.973C188.724 182.04 188.815 182.09 188.913 182.12C189.011 182.15 189.114 182.16 189.216 182.149C189.318 182.137 189.416 182.105 189.505 182.054C189.594 182.003 189.672 181.934 189.733 181.852C189.794 181.769 189.837 181.675 189.861 181.576C189.884 181.476 189.886 181.372 189.868 181.271C189.849 181.17 189.81 181.075 189.753 180.989C189.696 180.904 189.622 180.832 189.535 180.777L177.842 172.085L180.933 155.348C180.935 155.332 180.935 155.316 180.933 155.301C180.936 155.25 180.936 155.2 180.933 155.149C180.933 155.126 180.933 155.102 180.933 155.079C180.935 155.055 180.935 155.031 180.933 155.008C180.933 154.984 180.933 154.96 180.933 154.941L180.9 154.875C180.892 154.853 180.88 154.833 180.867 154.814L180.824 154.757L180.777 154.7C180.762 154.682 180.744 154.666 180.725 154.653L180.668 154.606L180.555 154.559L180.488 154.526L180.422 154.497C180.405 154.495 180.388 154.495 180.37 154.497C176.029 153.371 172.184 150.836 169.439 147.288C166.695 143.74 165.206 139.381 165.207 134.896V112.724L185.191 115.465C189.207 116.117 193.054 117.557 196.511 119.702C199.967 121.848 202.965 124.656 205.331 127.965C207.697 131.275 209.385 135.02 210.297 138.984C211.208 142.949 211.326 147.055 210.644 151.066L203.19 194.961C202.193 191.926 200.322 189.252 197.811 187.276C197.656 187.151 197.457 187.092 197.258 187.113C197.06 187.135 196.878 187.234 196.753 187.389C196.627 187.545 196.569 187.744 196.59 187.942C196.611 188.141 196.711 188.323 196.866 188.448C198.5 189.73 199.844 191.345 200.808 193.184C201.773 195.024 202.337 197.047 202.462 199.121V199.196C202.46 199.217 202.46 199.237 202.462 199.258C202.46 199.28 202.46 199.302 202.462 199.324C202.462 199.324 202.462 199.376 202.462 199.399C202.462 199.423 202.462 199.447 202.462 199.47C202.46 199.494 202.46 199.518 202.462 199.541C202.462 199.711 202.462 199.877 202.462 200.047C202.451 202.925 201.601 205.737 200.016 208.139C198.431 210.542 196.179 212.429 193.538 213.571C190.896 214.713 187.978 215.059 185.143 214.568C182.307 214.077 179.676 212.769 177.572 210.805L167.202 199.045C167.139 198.876 167.016 198.737 166.857 198.653L159.833 190.688V188.798L161.029 188.042C161.197 187.935 161.315 187.766 161.358 187.573C161.401 187.379 161.365 187.176 161.258 187.009C161.152 186.841 160.983 186.723 160.79 186.68C160.596 186.637 160.393 186.673 160.226 186.78L155.197 189.994Z" fill="black"/>
<path d="M138.928 153.949C138.847 153.891 138.757 153.85 138.66 153.828C138.564 153.806 138.464 153.803 138.367 153.82C138.269 153.836 138.176 153.872 138.093 153.925C138.009 153.978 137.937 154.047 137.881 154.128C137.824 154.209 137.784 154.301 137.763 154.397C137.742 154.494 137.74 154.593 137.758 154.691C137.776 154.788 137.813 154.881 137.867 154.963C137.921 155.046 137.991 155.117 138.072 155.173C138.499 155.47 138.821 155.895 138.992 156.386C139.164 156.877 139.175 157.41 139.025 157.908C138.876 158.406 138.572 158.844 138.159 159.16C137.745 159.475 137.242 159.652 136.722 159.664C136.202 159.677 135.692 159.525 135.263 159.23C134.835 158.935 134.511 158.512 134.337 158.022C134.163 157.532 134.149 156.999 134.296 156.5C134.443 156.001 134.744 155.562 135.156 155.244C135.281 155.113 135.354 154.942 135.363 154.762C135.371 154.581 135.313 154.404 135.201 154.262C135.088 154.121 134.928 154.025 134.751 153.993C134.573 153.96 134.39 153.993 134.234 154.086C133.573 154.596 133.09 155.302 132.854 156.103C132.618 156.903 132.641 157.758 132.92 158.545C133.199 159.332 133.72 160.011 134.408 160.484C135.095 160.958 135.915 161.202 136.75 161.182C137.584 161.162 138.391 160.878 139.055 160.372C139.719 159.866 140.206 159.163 140.447 158.363C140.687 157.564 140.669 156.709 140.394 155.92C140.12 155.132 139.603 154.45 138.918 153.973L138.928 153.949Z" fill="black"/>
<defs>
<linearGradient id="paint0_linear_1002_9480" x1="101.149" y1="171.91" x2="43.3722" y2="146.886" gradientUnits="userSpaceOnUse">
<stop stop-color="#F06531"/>
<stop offset="0.765625" stop-color="#EA3D35"/>
</linearGradient>
<linearGradient id="paint1_linear_1002_9480" x1="185.088" y1="171.91" x2="127.311" y2="146.886" gradientUnits="userSpaceOnUse">
<stop stop-color="#F06531"/>
<stop offset="0.765625" stop-color="#EA3D35"/>
</linearGradient>
<linearGradient id="paint2_linear_1002_9480" x1="165.534" y1="199.196" x2="125.481" y2="135.881" gradientUnits="userSpaceOnUse">
<stop stop-color="#F06531"/>
<stop offset="0.765625" stop-color="#EA3D35"/>
</linearGradient>
</defs>
</svg>
