<svg id="Layer_1" data-name="Layer 1" xmlns="http://www.w3.org/2000/svg" viewBox="0 0 174.65 130.81"><path d="M63.34,22.71v.89c.29,0,.45-.19.45-.39S63.65,22.79,63.34,22.71Z" fill="#fff"/><path d="M62.49,21.46c0,.17.19.36.43.43V21C62.68,21.05,62.48,21.19,62.49,21.46Z" fill="#fff"/><path d="M63.13,19.45A2.84,2.84,0,1,0,66,22.29,2.84,2.84,0,0,0,63.13,19.45Zm.21,4.74v.41h-.13a.29.29,0,0,1-.29-.29v-.13a1.12,1.12,0,0,1-1.14-1.11h.46a.24.24,0,0,1,.22.16.6.6,0,0,0,.46.36v-1a1.3,1.3,0,0,1-1.14-1.17c0-.52.28-1,1.14-1V20h.13a.3.3,0,0,1,.29.3v.15a1.11,1.11,0,0,1,1.12,1.12h-.4a.25.25,0,0,1-.23-.17.51.51,0,0,0-.49-.37v1c.67.15,1.12.52,1.14,1.05C64.52,23.84,64,24.15,63.34,24.19Z" fill="#fff"/><path d="M56,55v.89c.29,0,.44-.19.44-.39S56.28,55.08,56,55Z" fill="#fff"/><path d="M55.11,53.75a.58.58,0,0,0,.43.44v-.9A.47.47,0,0,0,55.11,53.75Z" fill="#fff"/><path d="M55.76,51.74a2.84,2.84,0,1,0,2.84,2.84A2.84,2.84,0,0,0,55.76,51.74ZM56,56.48v.41h-.13a.29.29,0,0,1-.3-.29v-.13a1.12,1.12,0,0,1-1.13-1.11h.45a.24.24,0,0,1,.23.17.57.57,0,0,0,.45.35v-1c-.51-.13-1.13-.47-1.13-1.16,0-.53.28-1,1.13-1v-.44h.14a.29.29,0,0,1,.29.29v.15a1.1,1.1,0,0,1,1.11,1.12h-.39a.23.23,0,0,1-.23-.17.51.51,0,0,0-.49-.37v1c.66.15,1.12.52,1.14,1.05C57.15,56.13,56.65,56.44,56,56.48Z" fill="#fff"/><path d="M66.92,60.77v1.51c.49-.07.76-.32.76-.65S67.45,60.9,66.92,60.77Z" fill="#fff"/><path d="M65.47,58.64c0,.3.32.62.73.74V57.86C65.8,58,65.46,58.18,65.47,58.64Z" fill="#fff"/><path d="M66.57,55.22a4.84,4.84,0,1,0,4.83,4.83A4.84,4.84,0,0,0,66.57,55.22Zm.35,8.07V64H66.7a.5.5,0,0,1-.5-.5v-.22a1.92,1.92,0,0,1-1.94-1.89H65a.42.42,0,0,1,.39.28,1,1,0,0,0,.77.6V60.64c-.88-.22-1.94-.81-1.94-2,0-.89.48-1.67,1.94-1.78v-.75h.23a.49.49,0,0,1,.49.5v.26a1.88,1.88,0,0,1,1.9,1.91h-.67a.43.43,0,0,1-.4-.29c-.09-.33-.3-.55-.83-.63v1.65c1.14.25,1.9.88,2,1.79C68.93,62.69,68.09,63.22,66.92,63.29Z" fill="#fff"/><path d="M67.36,14.74v.54c.17,0,.27-.11.27-.23A.31.31,0,0,0,67.36,14.74Z" fill="#fff"/><path d="M66.83,14c0,.11.12.22.26.27v-.55A.28.28,0,0,0,66.83,14Z" fill="#fff"/><path d="M67.23,12.73A1.75,1.75,0,1,0,69,14.48,1.75,1.75,0,0,0,67.23,12.73Zm.13,2.92v.25h-.09a.18.18,0,0,1-.18-.18v-.08a.69.69,0,0,1-.7-.68h.28a.16.16,0,0,1,.15.1.33.33,0,0,0,.27.22v-.59c-.31-.08-.7-.29-.7-.72s.18-.6.7-.64v-.28h.09a.2.2,0,0,1,.18.19v.09A.68.68,0,0,1,68,14H67.8a.18.18,0,0,1-.15-.11c0-.12-.1-.2-.29-.23v.6c.4.09.68.32.7.65C68.08,15.43,67.78,15.62,67.36,15.65Z" fill="#fff"/><path d="M72.27,69.32v.54c.18,0,.27-.12.27-.24A.29.29,0,0,0,72.27,69.32Z" fill="#fff"/><path d="M71.74,68.54c0,.11.12.23.27.27v-.55A.29.29,0,0,0,71.74,68.54Z" fill="#fff"/><path d="M72.14,67.31a1.75,1.75,0,1,0,1.75,1.75A1.75,1.75,0,0,0,72.14,67.31Zm.13,2.91v.26h-.08A.18.18,0,0,1,72,70.3v-.08a.68.68,0,0,1-.7-.68h.28a.15.15,0,0,1,.14.1.33.33,0,0,0,.28.21v-.58a.8.8,0,0,1-.7-.72c0-.32.17-.61.7-.65v-.27h.08a.18.18,0,0,1,.18.18v.1a.67.67,0,0,1,.68.69h-.24a.14.14,0,0,1-.14-.1.32.32,0,0,0-.3-.23v.6c.41.09.69.32.7.65C73,70,72.69,70.2,72.27,70.22Z" fill="#fff"/><path d="M56,27.2v.43c.14,0,.22-.09.22-.18S56.11,27.24,56,27.2Z" fill="#fff"/><path d="M55.55,26.6c0,.08.09.17.21.21v-.43A.22.22,0,0,0,55.55,26.6Z" fill="#fff"/><path d="M55.86,25.63A1.37,1.37,0,1,0,57.23,27,1.37,1.37,0,0,0,55.86,25.63Zm.1,2.29v.2H55.9a.15.15,0,0,1-.14-.15v-.06a.54.54,0,0,1-.55-.53h.22a.12.12,0,0,1,.11.08.27.27,0,0,0,.22.17v-.47c-.25-.06-.55-.22-.55-.56s.14-.47.55-.5v-.22h.06A.14.14,0,0,1,56,26v.08a.53.53,0,0,1,.54.54h-.19a.12.12,0,0,1-.11-.09c0-.09-.09-.15-.24-.17v.47c.33.07.54.25.56.5S56.29,27.9,56,27.92Z" fill="#fff"/><path d="M76,39v-.5c.15,0,.22.1.24.19a.14.14,0,0,0,.12.09h.2A.56.56,0,0,0,76,38.2v-.08a.15.15,0,0,0-.15-.15h-.07v.23c-.44,0-.58.27-.58.53s.32.53.58.6v.48a.27.27,0,0,1-.23-.18.12.12,0,0,0-.12-.08h-.23a.57.57,0,0,0,.58.56v.07a.15.15,0,0,0,.15.15H76v-.21a.54.54,0,0,0,.58-.6C76.6,39.25,76.37,39.06,76,39Zm-.22,0c-.12,0-.22-.13-.22-.22a.23.23,0,0,1,.22-.23Zm.22.87v-.45a.24.24,0,0,1,.22.25C76.26,39.72,76.18,39.8,76,39.82Z" fill="#fff"/><path d="M70.64,46.4v-1c.34,0,.47.19.53.4a.25.25,0,0,0,.25.18h.42a1.19,1.19,0,0,0-1.2-1.21v-.16a.31.31,0,0,0-.31-.31h-.14v.47c-.92.07-1.22.56-1.22,1.12a1.39,1.39,0,0,0,1.22,1.26v1a.62.62,0,0,1-.49-.38.26.26,0,0,0-.24-.17H69a1.21,1.21,0,0,0,1.22,1.19v.14a.31.31,0,0,0,.31.31h.14v-.44c.74-.05,1.27-.38,1.23-1.26C71.84,47,71.36,46.56,70.64,46.4Zm-.45-.08c-.26-.08-.46-.28-.46-.47s.2-.44.46-.49Zm.45,1.82v-1c.33.08.49.27.48.54S71,48.1,70.64,48.14Z" fill="#fff"/><path d="M75.59,25h.22v-.71c1.17-.07,2-.6,2-2,0-.91-.81-1.55-2-1.8V18.8c.53.08.74.31.83.64a.42.42,0,0,0,.4.29h.68a1.9,1.9,0,0,0-1.91-1.92v-.26a.51.51,0,0,0-.25-.44V25Zm.22-3.23c.53.13.77.43.76.85s-.26.59-.76.67Z" fill="#fff"/><path d="M69.21,34.42v.09a.18.18,0,0,0,.18.18h.09v-.26c.43,0,.74-.22.72-.74,0-.33-.3-.56-.72-.66v-.61c.19,0,.27.11.3.23a.15.15,0,0,0,.15.11h.25a.69.69,0,0,0-.7-.7V32a.19.19,0,0,0-.19-.18h-.08v.27c-.54.05-.72.33-.72.66a.82.82,0,0,0,.72.74v.6a.37.37,0,0,1-.29-.22.14.14,0,0,0-.14-.1h-.29A.7.7,0,0,0,69.21,34.42Zm.27-.92a.32.32,0,0,1,.28.32c0,.12-.1.21-.28.24Zm-.54-.79a.29.29,0,0,1,.27-.29V33C69.06,32.94,68.94,32.82,68.94,32.71Z" fill="#fff"/><path d="M114.63,27.87h-14.1V13.77a4.19,4.19,0,0,0-4.19-4.19H79.75a4.19,4.19,0,0,0-4.19,4.19v2.39a4.86,4.86,0,0,1,0,9.71v2H61.47a4.19,4.19,0,0,0-4.2,4.19v.08a8.21,8.21,0,0,1,0,16.42v.09a4.19,4.19,0,0,0,4.2,4.19H75.56V66.93a4.19,4.19,0,0,0,4.19,4.2H96.34a4.19,4.19,0,0,0,4.19-4.2V52.84h14.1a4.19,4.19,0,0,0,4.19-4.19V32.06A4.19,4.19,0,0,0,114.63,27.87ZM69.35,31.44a1.79,1.79,0,1,1-1.79,1.79A1.79,1.79,0,0,1,69.35,31.44Zm1.07,18.35a3.05,3.05,0,1,1,3-3A3.06,3.06,0,0,1,70.42,49.79Zm5.51-9.19a1.45,1.45,0,1,1,0-2.89,1.45,1.45,0,0,1,0,2.89Zm3.55,24.14A1.79,1.79,0,1,1,81.26,63,1.79,1.79,0,0,1,79.48,64.74Z" fill="#fff"/><path d="M57.5,47h.38v-1.2c2-.12,3.41-1,3.3-3.37-.07-1.54-1.38-2.61-3.3-3V36.62c.9.14,1.25.52,1.41,1.07a.68.68,0,0,0,.67.49l1.15,0A3.21,3.21,0,0,0,57.88,35v-.43a.84.84,0,0,0-.61-.81V47A.85.85,0,0,0,57.5,47Zm.38-5.47A1.45,1.45,0,0,1,59.17,43c0,.56-.46,1-1.29,1.11Z" fill="#fff"/><path d="M79.61,62.75v-.61c.19,0,.27.11.3.23a.15.15,0,0,0,.15.11h.25a.69.69,0,0,0-.7-.7v-.1a.18.18,0,0,0-.19-.18h-.08v.27c-.54,0-.72.33-.72.66a.82.82,0,0,0,.72.74v.6a.37.37,0,0,1-.29-.22.14.14,0,0,0-.14-.1h-.29a.71.71,0,0,0,.72.7v.08a.18.18,0,0,0,.18.18h.09v-.26c.43,0,.74-.22.72-.74C80.31,63.08,80,62.85,79.61,62.75Zm-.27,0c-.15-.05-.27-.17-.27-.28a.29.29,0,0,1,.27-.29Zm.27,1.07v-.56a.32.32,0,0,1,.28.32C79.89,63.66,79.79,63.75,79.61,63.78Z" fill="#fff"/><path d="M55.41,38a1.62,1.62,0,0,0,1.24,1.27V36.63A1.35,1.35,0,0,0,55.41,38Z" fill="#fff"/><path d="M56.65,46.19v-.37c-3.4-.36-3.29-3.21-3.29-3.21h1.32a.71.71,0,0,1,.66.48,1.63,1.63,0,0,0,1.31,1V41.35C55.16,41,53.36,40,53.36,38c0-1.51.82-2.84,3.29-3V33.67H57a.61.61,0,0,1,.24,0V32.14h0a8.21,8.21,0,0,0,0,16.42h0V47A.85.85,0,0,1,56.65,46.19Z" fill="#fff"/><path d="M74.35,19.59a1,1,0,0,0,.73.75V18.81A.79.79,0,0,0,74.35,19.59Z" fill="#fff"/><path d="M75.08,24.47v-.22a1.91,1.91,0,0,1-1.94-1.9h.78a.42.42,0,0,1,.39.28,1,1,0,0,0,.77.6V21.6a2.22,2.22,0,0,1-1.94-2c0-.89.48-1.68,1.94-1.79v-.75h.23a.54.54,0,0,1,.25.06v-1h-.11a4.86,4.86,0,1,0,0,9.72h.11V25A.5.5,0,0,1,75.08,24.47Z" fill="#fff"/><path d="M137.24,73.31l-.06,4.59v6.39l-1.67,1.85a2.17,2.17,0,0,0-.36,2.33l2,3.34v8c0,.23-.18.29-.42.29H132.7c-.3,0-.42-.12-.42-.41V73.31c0-.3.12-.42.42-.42h4.06c.3,0,.42.12.48.42ZM128.53,95a.38.38,0,0,1,.29.36,2.72,2.72,0,0,1-.59,1.25,17,17,0,0,1-1.55,1.91,7.12,7.12,0,0,1-5.55,2,9.69,9.69,0,0,1-4.24-1,7,7,0,0,1-2.81-2.75,7.42,7.42,0,0,1-1-4V87.51a7.61,7.61,0,0,1,1-4,7.25,7.25,0,0,1,2.81-2.68,8.81,8.81,0,0,1,4.24-1,8,8,0,0,1,5,1.44,5.52,5.52,0,0,1,1.37,1.31,7,7,0,0,1,1,1.43,2.73,2.73,0,0,1,.35.9.37.37,0,0,1-.29.35l-3.76,1.91h-.18c-.12,0-.18,0-.24-.06a1.22,1.22,0,0,1-.18-.29c-.06-.12-.18-.24-.24-.36a3.25,3.25,0,0,0-2.8-2.09,2.88,2.88,0,0,0-2.21.89,3,3,0,0,0-.9,2.21v5.37a3.1,3.1,0,0,0,.9,2.27,2.86,2.86,0,0,0,2.21.9,2.62,2.62,0,0,0,1.61-.54A5.89,5.89,0,0,0,123.93,94c.24-.54.48-.84.66-.84a.22.22,0,0,1,.18.06L128.53,95Zm-24.77-2.56h-4.6a1.07,1.07,0,0,0-.83.35,1.12,1.12,0,0,0-.3.84v.66a1.17,1.17,0,0,0,.3.89,1.08,1.08,0,0,0,.83.36h1.68c1.37,0,2.32-.78,2.86-2.45a6,6,0,0,1,.06-.65Zm4.95,7.22c0,.29-.18.41-.47.41H104.6a.46.46,0,0,1-.48-.35c-.06-.3-.18-.42-.24-.42a6.56,6.56,0,0,0-1.19.42,5.87,5.87,0,0,1-1.85.35H99.16A7,7,0,0,1,96,99.39a6.15,6.15,0,0,1-2.15-2.09,5.64,5.64,0,0,1-.77-3v-.24a5.8,5.8,0,0,1,.77-3,6,6,0,0,1,2.15-2,6.8,6.8,0,0,1,3.16-.77h4.18c.3,0,.42-.12.42-.36l-.06-.6a3,3,0,0,0-1-2.14,3.15,3.15,0,0,0-2.15-.78,2.52,2.52,0,0,0-1.26.36,4.3,4.3,0,0,0-1.13,1,1.31,1.31,0,0,0-.3.48l-.36.54c-.12.18-.18.3-.23.35s-.12.06-.24.06-.12-.06-.24-.06l-3.52-1.9c-.18-.06-.3-.18-.3-.3a3.72,3.72,0,0,1,.6-1.32,8.35,8.35,0,0,1,1.49-1.85,7.46,7.46,0,0,1,5.49-1.85,8.64,8.64,0,0,1,4.23,1,6.27,6.27,0,0,1,2.87,2.68,7.79,7.79,0,0,1,1,4V99.69ZM84.6,92.47V87.93a3.4,3.4,0,0,0-.35-1.55,3,3,0,0,0-1.14-1.14,3.43,3.43,0,0,0-1.55-.41,2.91,2.91,0,0,0-2.21.89,3,3,0,0,0-.89,2.21v4.54a3.12,3.12,0,0,0,5.31,2.2,2.89,2.89,0,0,0,.83-2.2Zm5,0a8.05,8.05,0,0,1-1,4,6.72,6.72,0,0,1-2.8,2.69,7.92,7.92,0,0,1-4,.95,5.74,5.74,0,0,1-2.21-.41,5.2,5.2,0,0,0-1.25-.42c-.12,0-.18.12-.24.42s-.24.41-.48.41h-3.7c-.3,0-.42-.12-.42-.41V73.31c0-.3.12-.42.42-.42H78a.38.38,0,0,1,.42.42v7.4c0,.3.06.48.3.48.06,0,.47-.18,1.19-.42a5.92,5.92,0,0,1,2.27-.48,7.93,7.93,0,0,1,2.92.6,7.16,7.16,0,0,1,3.94,4,8.08,8.08,0,0,1,.54,3v4.54Z" fill="#fff" fill-rule="evenodd"/><path d="M68.85,113.17a9.46,9.46,0,0,1-.54,3.29,6.53,6.53,0,0,1-4.11,4.17,8.75,8.75,0,0,1-3.35.6,8.54,8.54,0,0,1-5-1.37,9.53,9.53,0,0,1-1.55-1.56,9.43,9.43,0,0,1-.78-1.19,8.44,8.44,0,0,1-.89-3.64,8.8,8.8,0,0,1,8.71-8.89H62.7v5H61.39a3.87,3.87,0,0,0-3.76,3.88,3.36,3.36,0,0,0,3.16,3.22,3,3,0,0,0,2.21-1,2.81,2.81,0,0,0,1-2.21v-21c0-.3-.12-.42-.3-.42a3,3,0,0,0-.72.18,4.4,4.4,0,0,1-1,.29,5.52,5.52,0,0,1-1.14.12,8.55,8.55,0,0,1-4.17-1,6.4,6.4,0,0,1-2.81-2.69,7.55,7.55,0,0,1-1-4V73.31c0-.3.12-.42.42-.42h4.11c.3,0,.42.12.42.42V85.07a3,3,0,0,0,.9,2.2,2.9,2.9,0,0,0,2.14.9,2.79,2.79,0,0,0,2.21-1,2.75,2.75,0,0,0,1-2.14V73.31c0-.3.12-.42.41-.42h4.06c.3,0,.42.12.42.42v39.86Zm-25.6-28.1H38.71a1.12,1.12,0,0,0-1.19,1.19v.66a1.47,1.47,0,0,0,.3.89,1.21,1.21,0,0,0,.89.36h1.62c1.37,0,2.32-.84,2.92-2.45-.06,0,0-.24,0-.65Zm5,7.22c0,.29-.12.41-.42.41h-3.7c-.23,0-.35-.12-.47-.41s-.12-.42-.24-.42a7.4,7.4,0,0,0-1.14.42,4.9,4.9,0,0,1-1.9.41H38.71a6,6,0,0,1-3.16-.77,5.63,5.63,0,0,1-2.21-2,6.39,6.39,0,0,1-.71-3v-.24a6.07,6.07,0,0,1,.71-3,6.15,6.15,0,0,1,2.15-2.09,7,7,0,0,1,3.22-.71h4.12c.3,0,.42-.12.42-.42v-.6a3.38,3.38,0,0,0-1-2.08A3,3,0,0,0,40.15,77a3.51,3.51,0,0,0-1.32.3,3.45,3.45,0,0,0-1.07,1c-.18.18-.24.36-.36.48l-.3.54c-.12.18-.24.3-.24.36a.33.33,0,0,1-.23.06.36.36,0,0,1-.24-.06l-3.58-1.85c-.18-.12-.24-.24-.24-.3a3.52,3.52,0,0,1,.53-1.38,8.82,8.82,0,0,1,1.56-1.79c1.25-1.25,3-1.85,5.49-1.85a9.53,9.53,0,0,1,4.23.9,7.18,7.18,0,0,1,2.81,2.68,7.61,7.61,0,0,1,1,4V92.29ZM23.38,85.07v-4.6A2.87,2.87,0,0,0,23,78.92a2.44,2.44,0,0,0-1.13-1.07,2.64,2.64,0,0,0-1.56-.42,3,3,0,0,0-2.2.89,2.94,2.94,0,0,0-.9,2.15v4.6a3.14,3.14,0,0,0,.9,2.2,3,3,0,0,0,2.2.9,3,3,0,0,0,2.21-.9,3,3,0,0,0,.9-2.2Zm4.95,0A7.88,7.88,0,0,1,27.38,89a7.24,7.24,0,0,1-2.75,2.74,8,8,0,0,1-3.94,1,5.27,5.27,0,0,1-2-.41,7.55,7.55,0,0,0-1.25-.48c-.18,0-.3.18-.3.54v7.16c0,.3-.12.47-.42.47H12.64a.42.42,0,0,1-.42-.47V73.31a.38.38,0,0,1,.42-.42h3.7c.23,0,.35.12.47.42s.18.42.24.42a8.35,8.35,0,0,0,1.26-.42,5.91,5.91,0,0,1,2.32-.42,8,8,0,0,1,3.94,1,7.61,7.61,0,0,1,2.81,2.68,7.79,7.79,0,0,1,.95,3.94v4.6Z" fill="#fff" fill-rule="evenodd"/><polygon points="70.16 104.58 70.16 109.59 148.58 109.59 148.58 104.58 70.16 104.58 70.16 104.58" fill="#fff" fill-rule="evenodd"/><path d="M150.9,85.54h-7l4.36-4.47a.54.54,0,0,0,.18-.42c0-.24-.18-.36-.48-.36h-5.13l-.3.12L136.4,87a1.3,1.3,0,0,0-.18.83l7.46,12.06.42.17h5.07c.3,0,.48-.06.48-.29a.85.85,0,0,0-.12-.36L144,90.56h6.92c7.1,0,8.36,8.71,4.36,12.35a6.43,6.43,0,0,1-4.36,1.67h-2.32v5h2.32a10.9,10.9,0,0,0,10.39-6.68C164.45,95.81,161.11,85.54,150.9,85.54Z" fill="#fff" fill-rule="evenodd"/></svg>