<svg id="Layer_1" data-name="Layer 1" xmlns="http://www.w3.org/2000/svg" viewBox="0 0 20.06 19.13"><path d="M17.93,4.15a2,2,0,0,1-.13.44,3.16,3.16,0,0,1-.44.64q-3.43,3.47-6.91,6.91a.71.71,0,0,1-.31.19L7,13.21c-.4.11-.65-.13-.54-.54.29-1.05.58-2.11.88-3.17a.75.75,0,0,1,.18-.31l6.92-6.92a1.75,1.75,0,0,1,2.57,0l.4.39a1.77,1.77,0,0,1,.52,1l0,.06Zm-7.79,7.17,5.7-5.7L14,3.8,8.32,9.5Zm4.49-8.16L16.48,5c.14-.14.3-.29.45-.47a.94.94,0,0,0,0-1.19,6.65,6.65,0,0,0-.65-.65.93.93,0,0,0-1.18,0A5.15,5.15,0,0,0,14.63,3.16ZM7.35,12.29l2-.56L7.91,10.28Z" fill="#069"/><path d="M9.62,17.42H4.18a1.9,1.9,0,0,1-1.86-1.16,2.06,2.06,0,0,1-.17-.81q0-5.11,0-10.25A1.93,1.93,0,0,1,4,3.25c1.18,0,2.36,0,3.54,0A.4.4,0,0,1,8,3.63a.41.41,0,0,1-.43.4C6.43,4,5.3,4,4.17,4a1.16,1.16,0,0,0-1.2.9,1.2,1.2,0,0,0,0,.38c0,3.35,0,6.69,0,10a1.18,1.18,0,0,0,.87,1.24,1.69,1.69,0,0,0,.38,0H15.05a1.18,1.18,0,0,0,1.22-.89,1.4,1.4,0,0,0,.05-.41V12a.39.39,0,1,1,.78-.08,2.61,2.61,0,0,1,0,.28c0,1.11,0,2.23,0,3.34a1.91,1.91,0,0,1-1.84,1.86c-1.15,0-2.3,0-3.44,0Z" fill="#069"/></svg>