<svg id="Layer_1" data-name="Layer 1" xmlns="http://www.w3.org/2000/svg" viewBox="0 0 32.39 29.58"><rect x="8.1" y="4.27" width="8.52" height="18.1" rx="4.26" fill="#fff"/><path d="M16.8,18.31v-10a4.45,4.45,0,0,0-8.89,0v10a4.45,4.45,0,1,0,8.89,0ZM12.36,4.55a3.77,3.77,0,0,1,3.76,3.77V13H8.59V8.32A3.77,3.77,0,0,1,12.36,4.55ZM8.59,18.31V13.67h7.53v4.64a3.77,3.77,0,1,1-7.53,0Z" fill="#069"/><rect x="14.84" y="16.29" width="0.68" height="0.7" fill="#fff"/><rect x="9.19" y="9.89" width="0.68" height="0.63" fill="#069"/><path d="M15.52,18.31v-.56h-.68v.56a2.49,2.49,0,0,1-2,2.45v.68A3.16,3.16,0,0,0,15.52,18.31Z" fill="#fff"/><path d="M12.36,5.83V5.16A3.17,3.17,0,0,0,9.19,8.32v.83h.68V8.32A2.49,2.49,0,0,1,12.36,5.83Z" fill="#069"/><rect x="16.84" y="8.46" width="8.6" height="18.26" rx="4.3" transform="translate(-6.25 20.1) rotate(-45)" fill="#fff"/><path d="M27.82,18l-7.07-7.06a4.44,4.44,0,0,0-6.28,6.28l7.06,7.07A4.45,4.45,0,0,0,27.82,18ZM15,11.4a3.76,3.76,0,0,1,5.32,0l3.29,3.28L18.23,20,15,16.72A3.76,3.76,0,0,1,15,11.4ZM22,23.79,18.73,20.5l5.32-5.32,3.29,3.28A3.77,3.77,0,0,1,22,23.79Z" fill="#069"/><rect x="25.15" y="17.59" width="0.68" height="0.7" transform="translate(-5.22 23.28) rotate(-45)" fill="#069"/><rect x="16.6" y="17.08" width="0.68" height="0.63" transform="translate(-7.33 17.07) rotate(-45)"/><path d="M26.91,18.89l-.39-.4L26,19l.39.4a2.48,2.48,0,0,1,.29,3.17l.48.49A3.17,3.17,0,0,0,26.91,18.89Z" fill="#069"/><path d="M15.85,12.3l-.48-.48a3.18,3.18,0,0,0,0,4.48l.59.58.47-.48-.58-.58A2.49,2.49,0,0,1,15.85,12.3Z" fill="#069"/><rect x="3.62" y="16.99" width="18.17" height="8.55" rx="4.28" fill="#fff"/><path d="M17.7,16.82h-10a4.45,4.45,0,0,0,0,8.89h10a4.45,4.45,0,1,0,0-8.89ZM3.94,21.26A3.77,3.77,0,0,1,7.71,17.5h4.65V25H7.71A3.77,3.77,0,0,1,3.94,21.26ZM17.7,25H13.06V17.5H17.7a3.77,3.77,0,1,1,0,7.53Z" fill="#069"/><rect x="15.68" y="18.1" width="0.7" height="0.68" fill="#069"/><rect x="9.28" y="23.75" width="0.63" height="0.68" fill="#069"/><path d="M17.7,18.1h-.56v.68h.56a2.49,2.49,0,0,1,2.45,2h.68A3.16,3.16,0,0,0,17.7,18.1Z" fill="#069"/><path d="M5.22,21.26H4.55a3.17,3.17,0,0,0,3.16,3.17h.83v-.68H7.71A2.49,2.49,0,0,1,5.22,21.26Z" fill="#069"/></svg>