<svg id="Layer_1" data-name="Layer 1" xmlns="http://www.w3.org/2000/svg" viewBox="0 0 32.39 29.58"><path d="M24.67,25.79h-17a.42.42,0,0,1-.42-.42V4.21a.42.42,0,0,1,.42-.42H19.22a.42.42,0,0,1,.3.12L25,9.37a.39.39,0,0,1,.13.29V25.37A.42.42,0,0,1,24.67,25.79ZM8.13,25H24.25V9.84l-5.2-5.21H8.13Z" fill="#069"/><path d="M24.67,10.09H19.23a.42.42,0,0,1-.42-.42V4.21h.85v5h5Z" fill="#069"/><path d="M12.36,11.18a.42.42,0,0,1-.42-.42V6.58a.42.42,0,0,1,.84,0v4.18A.42.42,0,0,1,12.36,11.18Z" fill="#069"/><path d="M14.45,9.09H10.27a.42.42,0,1,1,0-.84h4.18a.42.42,0,1,1,0,.84Z" fill="#069"/><path d="M22.12,14.56H10.27a.42.42,0,0,1-.42-.42.42.42,0,0,1,.42-.42H22.12a.41.41,0,0,1,.42.42A.42.42,0,0,1,22.12,14.56Z" fill="#069"/><path d="M15.56,19.88H10.27a.42.42,0,0,1-.42-.42.42.42,0,0,1,.42-.42h5.29a.42.42,0,0,1,.42.42A.42.42,0,0,1,15.56,19.88Z" fill="#069"/><path d="M22.12,19.88H18a.42.42,0,0,1-.42-.42A.42.42,0,0,1,18,19h4.09a.42.42,0,0,1,.42.42A.41.41,0,0,1,22.12,19.88Z" fill="#069"/><path d="M15.56,17.18H10.27a.42.42,0,0,1,0-.84h5.29a.42.42,0,0,1,0,.84Z" fill="#069"/><path d="M22.12,17.18H18a.42.42,0,0,1,0-.84h4.09a.42.42,0,0,1,0,.84Z" fill="#069"/><path d="M22.12,22.55H17.7a.42.42,0,0,1-.42-.42.41.41,0,0,1,.42-.42h4.42a.41.41,0,0,1,.42.42A.42.42,0,0,1,22.12,22.55Z" fill="#069"/></svg>