<svg id="Layer_1" data-name="Layer 1" xmlns="http://www.w3.org/2000/svg" xmlns:xlink="http://www.w3.org/1999/xlink" viewBox="0 0 140.09 98.38"><defs><linearGradient id="linear-gradient" x1="43.61" y1="19.97" x2="77.94" y2="50.74" gradientUnits="userSpaceOnUse"><stop offset="0" stop-color="#0098c5"/><stop offset="1" stop-color="#069"/></linearGradient><linearGradient id="linear-gradient-2" x1="38.77" y1="25.37" x2="73.09" y2="56.15" xlink:href="#linear-gradient"/><linearGradient id="linear-gradient-3" x1="50.53" y1="12.26" x2="84.85" y2="43.03" xlink:href="#linear-gradient"/><linearGradient id="linear-gradient-4" x1="43.62" y1="19.96" x2="77.94" y2="50.74" xlink:href="#linear-gradient"/><linearGradient id="linear-gradient-5" x1="47.35" y1="15.8" x2="81.68" y2="46.57" xlink:href="#linear-gradient"/><linearGradient id="linear-gradient-6" x1="36.76" y1="27.61" x2="71.09" y2="58.38" xlink:href="#linear-gradient"/><linearGradient id="linear-gradient-7" x1="35.64" y1="28.86" x2="69.96" y2="59.64" xlink:href="#linear-gradient"/><linearGradient id="linear-gradient-8" x1="37.35" y1="26.95" x2="71.68" y2="57.72" xlink:href="#linear-gradient"/><linearGradient id="linear-gradient-9" x1="36.14" y1="28.3" x2="70.46" y2="59.08" xlink:href="#linear-gradient"/><linearGradient id="linear-gradient-10" x1="50.86" y1="11.88" x2="85.19" y2="42.66" xlink:href="#linear-gradient"/><linearGradient id="linear-gradient-11" x1="50.16" y1="12.66" x2="84.48" y2="43.44" xlink:href="#linear-gradient"/></defs><path d="M51.26,22.8v.69c.22,0,.34-.15.34-.3S51.5,22.86,51.26,22.8Z" fill="#0098c5"/><path d="M50.59,21.83a.45.45,0,0,0,.34.34v-.7A.37.37,0,0,0,50.59,21.83Z" fill="#0098c5"/><path d="M51.09,20.27a2.21,2.21,0,1,0,2.21,2.2A2.2,2.2,0,0,0,51.09,20.27ZM51.26,24v.32h-.11a.22.22,0,0,1-.22-.22V24a.88.88,0,0,1-.89-.87h.36a.21.21,0,0,1,.18.13.4.4,0,0,0,.35.27v-.74c-.4-.1-.89-.37-.89-.91s.22-.76.89-.81v-.34H51a.22.22,0,0,1,.23.22V21a.87.87,0,0,1,.87.87h-.31a.18.18,0,0,1-.18-.13.41.41,0,0,0-.38-.29v.76c.52.11.87.4.89.81C52.17,23.68,51.79,23.92,51.26,24Z" fill="#0098c5"/><path d="M45.52,47.92v.69c.23,0,.35-.15.35-.3A.39.39,0,0,0,45.52,47.92Z" fill="#0098c5"/><path d="M44.86,47c0,.14.14.28.33.34v-.7C45,46.63,44.85,46.74,44.86,47Z" fill="#0098c5"/><path d="M45.36,45.39a2.21,2.21,0,1,0,2.21,2.2A2.2,2.2,0,0,0,45.36,45.39Zm.16,3.68v.32h-.1a.22.22,0,0,1-.23-.22v-.1a.88.88,0,0,1-.88-.87h.35a.21.21,0,0,1,.18.13.43.43,0,0,0,.35.27v-.74a1,1,0,0,1-.88-.91c0-.4.22-.76.88-.81V45.8h.1a.22.22,0,0,1,.23.22v.12a.86.86,0,0,1,.87.87h-.31a.18.18,0,0,1-.18-.13c0-.15-.14-.25-.38-.29v.76c.52.11.87.4.89.81C46.44,48.8,46.05,49,45.52,49.07Z" fill="#0098c5"/><path d="M54,52.41v1.18c.39-.06.59-.26.59-.51S54.45,52.51,54,52.41Z" fill="#0098c5"/><path d="M52.91,50.75a.73.73,0,0,0,.57.58V50.15A.62.62,0,0,0,52.91,50.75Z" fill="#0098c5"/><path d="M53.77,48.09a3.76,3.76,0,1,0,3.76,3.76A3.76,3.76,0,0,0,53.77,48.09ZM54,54.37v.55h-.17a.39.39,0,0,1-.39-.39v-.17A1.49,1.49,0,0,1,52,52.89h.6a.31.31,0,0,1,.3.22.76.76,0,0,0,.6.46V52.31A1.72,1.72,0,0,1,52,50.76c0-.69.37-1.3,1.5-1.38v-.59h.18a.39.39,0,0,1,.38.39v.2a1.47,1.47,0,0,1,1.48,1.49H55a.32.32,0,0,1-.31-.23c-.07-.25-.23-.42-.65-.49v1.29c.88.2,1.48.69,1.51,1.39C55.6,53.9,55,54.31,54,54.37Z" fill="#0098c5"/><path d="M54.38,16.6V17c.14,0,.21-.1.21-.19S54.53,16.64,54.38,16.6Z" fill="#0098c5"/><path d="M54,16a.25.25,0,0,0,.21.21v-.43C54.06,15.81,54,15.87,54,16Z" fill="#0098c5"/><path d="M54.28,15a1.36,1.36,0,1,0,1.36,1.36A1.36,1.36,0,0,0,54.28,15Zm.1,2.27v.2h-.06a.14.14,0,0,1-.14-.14v-.06a.54.54,0,0,1-.55-.54h.22a.13.13,0,0,1,.11.08.27.27,0,0,0,.22.17v-.46c-.25-.06-.55-.22-.55-.56s.14-.47.55-.5v-.21h.06a.14.14,0,0,1,.14.14v.08a.52.52,0,0,1,.53.53h-.19a.12.12,0,0,1-.11-.08c0-.09-.08-.16-.23-.18v.47c.32.07.53.25.55.5S54.71,17.29,54.38,17.31Z" fill="#0098c5"/><path d="M58.2,59.06v.42c.14,0,.21-.09.21-.18S58.35,59.09,58.2,59.06Z" fill="#069"/><path d="M57.79,58.46c0,.08.09.17.21.21v-.43A.22.22,0,0,0,57.79,58.46Z" fill="#069"/><path d="M58.1,57.5a1.36,1.36,0,1,0,1.36,1.36A1.36,1.36,0,0,0,58.1,57.5Zm.1,2.26V60h-.06a.14.14,0,0,1-.14-.14v-.06a.55.55,0,0,1-.55-.53h.22a.12.12,0,0,1,.11.08.27.27,0,0,0,.22.17V59c-.25-.06-.55-.23-.55-.56s.14-.47.55-.5v-.21h.06a.14.14,0,0,1,.14.14V58a.53.53,0,0,1,.54.54h-.19a.14.14,0,0,1-.12-.09c0-.09-.08-.15-.23-.17v.46c.32.07.54.25.55.51S58.53,59.74,58.2,59.76Z" fill="#069"/><path d="M45.52,26.3v.33c.11,0,.17-.07.17-.14S45.63,26.33,45.52,26.3Z" fill="#0098c5"/><path d="M45.2,25.83c0,.06.07.13.16.16v-.33A.17.17,0,0,0,45.2,25.83Z" fill="#0098c5"/><path d="M45.44,25.07a1.07,1.07,0,1,0,1.07,1.07A1.07,1.07,0,0,0,45.44,25.07Zm.08,1.78V27h-.05a.11.11,0,0,1-.11-.11v0a.43.43,0,0,1-.43-.42h.17a.1.1,0,0,1,.09.06.23.23,0,0,0,.17.14v-.36c-.19-.05-.43-.18-.43-.44s.11-.37.43-.39v-.17h0a.11.11,0,0,1,.11.11v.06a.41.41,0,0,1,.42.42h-.15a.1.1,0,0,1-.09-.07c0-.07-.06-.12-.18-.14V26c.25.06.42.19.43.39S45.78,26.84,45.52,26.85Z" fill="#0098c5"/><path d="M61.13,35.47v-.39c.13,0,.17.07.19.15a.14.14,0,0,0,.1.07h.15a.44.44,0,0,0-.44-.45v-.06a.11.11,0,0,0-.11-.11H61v.17c-.33,0-.45.21-.45.42s.25.41.45.46v.38c-.11,0-.16-.09-.17-.14a.11.11,0,0,0-.1-.07h-.18a.45.45,0,0,0,.45.44v0a.12.12,0,0,0,.12.12h.05v-.17c.27,0,.47-.13.45-.46S61.4,35.52,61.13,35.47Zm-.17,0a.25.25,0,0,1-.17-.18.19.19,0,0,1,.17-.18Zm.17.67v-.35a.2.2,0,0,1,.18.2C61.31,36,61.25,36.09,61.13,36.11Z" fill="url(#linear-gradient)"/><path d="M56.94,41.23v-.81c.26,0,.36.15.4.31a.22.22,0,0,0,.2.14h.33a.93.93,0,0,0-.93-.94v-.12a.25.25,0,0,0-.25-.25h-.11v.37c-.71.06-.95.44-.95.88s.52.86.95,1v.8a.44.44,0,0,1-.37-.3.21.21,0,0,0-.19-.13h-.39a.93.93,0,0,0,.95.92v.11a.25.25,0,0,0,.25.25h.11v-.35c.57,0,1-.29,1-1C57.87,41.66,57.49,41.35,56.94,41.23Zm-.36-.06a.45.45,0,0,1-.35-.37.38.38,0,0,1,.35-.38Zm.36,1.42v-.74a.41.41,0,0,1,.37.42C57.31,42.43,57.18,42.55,56.94,42.59Z" fill="url(#linear-gradient-2)"/><path d="M60.78,24.56H61V24c.91-.05,1.57-.46,1.52-1.55,0-.71-.64-1.2-1.52-1.4v-1.3a.69.69,0,0,1,.65.5.32.32,0,0,0,.31.22h.52A1.46,1.46,0,0,0,61,19v-.2a.38.38,0,0,0-.2-.34v6.1ZM61,22c.41.11.59.34.59.67s-.21.46-.59.52Z" fill="url(#linear-gradient-3)"/><path d="M55.82,31.92V32a.15.15,0,0,0,.15.14H56v-.2c.34,0,.58-.17.56-.57s-.23-.44-.56-.52v-.47c.15,0,.21.08.24.18a.11.11,0,0,0,.11.08h.2a.55.55,0,0,0-.55-.55V30a.14.14,0,0,0-.14-.14h-.07v.21c-.42,0-.56.26-.56.52s.31.5.56.57v.46a.27.27,0,0,1-.22-.17.13.13,0,0,0-.11-.08h-.23A.57.57,0,0,0,55.82,31.92ZM56,31.2a.24.24,0,0,1,.22.24c0,.1-.08.17-.22.19Zm-.42-.62a.23.23,0,0,1,.21-.22v.44C55.7,30.76,55.61,30.67,55.61,30.58Z" fill="url(#linear-gradient-4)"/><path d="M91.15,26.81h-11v-11a3.26,3.26,0,0,0-3.26-3.26H64a3.26,3.26,0,0,0-3.26,3.26v1.86a3.78,3.78,0,0,1,0,7.55v1.55h-11a3.26,3.26,0,0,0-3.26,3.26v.07a6.39,6.39,0,0,1,0,12.78V43a3.26,3.26,0,0,0,3.26,3.26h11v11A3.26,3.26,0,0,0,64,60.47H76.93a3.26,3.26,0,0,0,3.26-3.26v-11h11A3.26,3.26,0,0,0,94.41,43V30.07A3.26,3.26,0,0,0,91.15,26.81ZM55.93,29.6A1.39,1.39,0,1,1,54.54,31,1.39,1.39,0,0,1,55.93,29.6Zm.83,14.27a2.38,2.38,0,1,1,2.37-2.38A2.38,2.38,0,0,1,56.76,43.87Zm4.29-7.15a1.13,1.13,0,1,1,1.12-1.13A1.13,1.13,0,0,1,61.05,36.72ZM63.81,55.5a1.39,1.39,0,1,1,1.39-1.39A1.39,1.39,0,0,1,63.81,55.5Z" fill="url(#linear-gradient-5)"/><path d="M46.71,41.73H47V40.8c1.54-.09,2.65-.79,2.57-2.63-.06-1.19-1.07-2-2.57-2.36V33.62c.7.11,1,.41,1.09.84a.55.55,0,0,0,.53.38h.89A2.5,2.5,0,0,0,47,32.33V32a.66.66,0,0,0-.47-.63V41.7A.47.47,0,0,0,46.71,41.73Zm.3-4.25c.69.17,1,.57,1,1.13s-.35.77-1,.87Z" fill="url(#linear-gradient-6)"/><path d="M63.91,54v-.47c.15,0,.21.08.24.18a.11.11,0,0,0,.11.08h.2a.55.55,0,0,0-.55-.55v-.07a.14.14,0,0,0-.14-.14H63.7v.21c-.42,0-.56.26-.56.51s.31.51.56.58v.46a.27.27,0,0,1-.22-.17.12.12,0,0,0-.11-.08h-.23a.57.57,0,0,0,.56.55v.06a.15.15,0,0,0,.15.14h.06V55c.34,0,.58-.17.56-.57S64.24,54,63.91,54Zm-.21,0c-.12,0-.21-.13-.21-.22a.23.23,0,0,1,.21-.22Zm.21.83v-.43a.24.24,0,0,1,.22.24C64.13,54.66,64.05,54.73,63.91,54.75Z" fill="url(#linear-gradient-7)"/><path d="M45.09,34.66c0,.4.42.82,1,1v-2A1,1,0,0,0,45.09,34.66Z" fill="url(#linear-gradient-8)"/><path d="M46.05,41.07v-.29a2.51,2.51,0,0,1-2.55-2.49h1a.55.55,0,0,1,.52.37,1.26,1.26,0,0,0,1,.79V37.3c-1.16-.29-2.56-1.06-2.55-2.62,0-1.18.63-2.21,2.55-2.36v-1h.3a.58.58,0,0,1,.19,0V30.14h0a6.39,6.39,0,1,0,0,12.78h0V41.7A.65.65,0,0,1,46.05,41.07Z" fill="url(#linear-gradient-9)"/><path d="M59.82,20.38a.76.76,0,0,0,.57.58V19.77A.62.62,0,0,0,59.82,20.38Z" fill="url(#linear-gradient-10)"/><path d="M60.39,24.17V24a1.5,1.5,0,0,1-1.51-1.48h.61a.33.33,0,0,1,.3.22.75.75,0,0,0,.6.47V21.94c-.68-.17-1.51-.63-1.51-1.55,0-.7.37-1.31,1.51-1.4V18.4h.18a.33.33,0,0,1,.19.06v-.75h-.08a3.78,3.78,0,0,0,0,7.56h.08v-.7A.39.39,0,0,1,60.39,24.17Z" fill="url(#linear-gradient-11)"/><path d="M11.78,85.47l.3-3,.77-10.42.27-4.52,2.41,0,2.23,0c.12.71.21,1.21.28,1.51s.18.77.36,1.43.4,1.45.68,2.38c.41,1.42.78,2.82,1.1,4.2l.88,3.75L22.61,76l2.25-6.26c.07-.21.15-.45.23-.72s.22-.77.41-1.48l2.46,0,2.29,0q-.16,3.78-.25,8.35c-.05,3-.08,5.32-.08,6.82q0,1.1,0,2.73l-1.56,0-1.6,0c.05-.89.08-1.63.09-2.2l.2-7.81c0-1.1,0-2.18,0-3.25V71.15L22.85,83.91l-.5,1.56-1.54,0-1.64,0-2-8.08c-.07-.29-.23-.89-.48-1.81L16,72.91c-.07-.26-.12-.46-.16-.63s-.11-.52-.22-1.08l-.15,1.68c0,.53-.1,1.43-.18,2.68l-.45,8.13c0,.4,0,1,0,1.78l-1.49,0Z" fill="#069"/><path d="M43.35,82.49c-.1.52-.25,1.45-.43,2.78a20,20,0,0,1-2.11.41,14.06,14.06,0,0,1-1.72.1,9.8,9.8,0,0,1-2.71-.34,4.63,4.63,0,0,1-2.1-1.25A5.56,5.56,0,0,1,33,82a9.13,9.13,0,0,1-.43-2.78,10,10,0,0,1,.5-3.12,6.67,6.67,0,0,1,1.39-2.48,5.12,5.12,0,0,1,2-1.36,7.2,7.2,0,0,1,2.4-.4,7.54,7.54,0,0,1,2.24.33,4.16,4.16,0,0,1,1.79,1.1A5.15,5.15,0,0,1,44,75.07a7.16,7.16,0,0,1,.38,2.38,7,7,0,0,1-.11,1.27H35.78c0,.32,0,.58,0,.77A4.67,4.67,0,0,0,36,81.12a3.22,3.22,0,0,0,.77,1.24,3.27,3.27,0,0,0,1.22.76,4.27,4.27,0,0,0,1.38.24,8.44,8.44,0,0,0,1.73-.2A15.81,15.81,0,0,0,43.35,82.49ZM35.88,77.2h5.41a7.11,7.11,0,0,0,0-.93,3.37,3.37,0,0,0-.15-.68,2.27,2.27,0,0,0-.33-.68,1.9,1.9,0,0,0-.49-.49,2.1,2.1,0,0,0-.64-.3,2.77,2.77,0,0,0-.78-.11,2.71,2.71,0,0,0-1.78.67,2.84,2.84,0,0,0-.62.73,3.3,3.3,0,0,0-.35.78A6.9,6.9,0,0,0,35.88,77.2Z" fill="#069"/><path d="M58.07,85.47l-1.49,0-1.59,0,.1-2.28a11.57,11.57,0,0,1-.87,1.15,5.3,5.3,0,0,1-.9.76,4.08,4.08,0,0,1-1.17.51,4.57,4.57,0,0,1-1.29.17,4.89,4.89,0,0,1-2.08-.45A4.65,4.65,0,0,1,47.13,84a5.3,5.3,0,0,1-1-2,8.57,8.57,0,0,1-.32-2.39,10.12,10.12,0,0,1,.57-3.35A7,7,0,0,1,48,73.67a5.71,5.71,0,0,1,2.27-1.43A8.67,8.67,0,0,1,53,71.82a14.41,14.41,0,0,1,2.38.22c0-1.13.08-2.33.08-3.58v-.89l1.67,0,1.69,0q-.26,3.33-.48,9.07C58.15,80.46,58.07,83.41,58.07,85.47ZM55.22,74.53a5.91,5.91,0,0,0-1.67-.26,5.29,5.29,0,0,0-1.74.29,3.59,3.59,0,0,0-1.48,1,4.8,4.8,0,0,0-1,1.79,6.6,6.6,0,0,0-.35,2.1,5,5,0,0,0,.32,1.84,2.79,2.79,0,0,0,1,1.33,2.52,2.52,0,0,0,1.51.48A2.63,2.63,0,0,0,53,82.83a2.76,2.76,0,0,0,.94-.79,4.52,4.52,0,0,0,.73-1.37,10.19,10.19,0,0,0,.42-2.23C55.12,77.76,55.17,76.46,55.22,74.53Z" fill="#069"/><path d="M60.93,85.47c.12-1.31.2-2.41.25-3.29.07-1.4.14-3,.2-4.84s.1-3.56.13-5.21l1.68,0,1.68,0c-.1,1.53-.19,3-.25,4.36s-.11,3-.14,4.74,0,3.2,0,4.24l-1.69,0Zm.63-15.62c0-.9,0-1.59,0-2.07v-.42l1.71,0q.9,0,1.68,0c0,.22,0,.47,0,.75l-.06,1.74c-.58,0-1.12,0-1.62,0S62.21,69.83,61.56,69.85Z" fill="#069"/><path d="M76.46,82.44c0,.36-.1.77-.18,1.22s-.16,1-.24,1.69a12.76,12.76,0,0,1-3.26.43,8.14,8.14,0,0,1-1.8-.19,4.86,4.86,0,0,1-1.62-.7,5.18,5.18,0,0,1-1.31-1.33,6.07,6.07,0,0,1-.85-2,10.27,10.27,0,0,1-.28-2.42A10.55,10.55,0,0,1,67.39,76a6.13,6.13,0,0,1,1.37-2.48,4.67,4.67,0,0,1,2-1.31,8.26,8.26,0,0,1,2.46-.35,11.85,11.85,0,0,1,1.55.1,12.57,12.57,0,0,1,1.88.4l.18,2.87a8.42,8.42,0,0,0-3-.67,3.74,3.74,0,0,0-1.49.3,3.11,3.11,0,0,0-1.2,1,4.16,4.16,0,0,0-.71,1.5A6.83,6.83,0,0,0,70.21,79a6.36,6.36,0,0,0,.34,2.16,2.79,2.79,0,0,0,1.17,1.41,3.66,3.66,0,0,0,1.9.49,6.62,6.62,0,0,0,1.26-.15A8.58,8.58,0,0,0,76.46,82.44Z" fill="#069"/><path d="M81.24,85.44a2,2,0,0,1-2-2.18l.16-2.35.23-5.71.15-5.68v0a1.94,1.94,0,0,1,2-1.9h.46c.57,0,1.31,0,2.23,0s1.72,0,2.39,0a16.41,16.41,0,0,1,2.52.18,5.6,5.6,0,0,1,2,.69,5.77,5.77,0,0,1,1.51,1.27,6.86,6.86,0,0,1,1,1.68,10,10,0,0,1,.62,2.06,12.72,12.72,0,0,1,.21,2.31A13.31,13.31,0,0,1,94,80,8.36,8.36,0,0,1,92,83.38a6.29,6.29,0,0,1-3,1.71,17.17,17.17,0,0,1-3.77.38l-3.93,0Zm1.37-3.62a.85.85,0,0,0,.83.89l1,0a14.53,14.53,0,0,0,1.94-.12A6.66,6.66,0,0,0,88,82.24a4,4,0,0,0,1.3-.9,5.71,5.71,0,0,0,1.07-1.49A7.56,7.56,0,0,0,91,78a9.88,9.88,0,0,0,.22-2.11,7.55,7.55,0,0,0-.59-3.23A3.91,3.91,0,0,0,89,70.8a6.18,6.18,0,0,0-3-.55l-2.1,0a1,1,0,0,0-.93.91Z" fill="#0098c5"/><path d="M103,71.82a7.28,7.28,0,0,1,2.55.45,5.49,5.49,0,0,1,2.07,1.34,5.69,5.69,0,0,1,1.28,2.16,8.63,8.63,0,0,1,.43,2.7,9,9,0,0,1-.46,2.88,7.08,7.08,0,0,1-1.3,2.41,5.24,5.24,0,0,1-2.14,1.52,7.55,7.55,0,0,1-5.27,0A5.43,5.43,0,0,1,98.11,84a6.08,6.08,0,0,1-1.3-2.21,8.2,8.2,0,0,1-.45-2.71,9.36,9.36,0,0,1,.41-2.76A6.67,6.67,0,0,1,98,74a5.82,5.82,0,0,1,2.21-1.59A7.18,7.18,0,0,1,103,71.82Zm0,2.7a3,3,0,0,0-1.79.56A3.26,3.26,0,0,0,100,76.74a7.37,7.37,0,0,0-.38,2.4,5.85,5.85,0,0,0,.32,2,3.07,3.07,0,0,0,1,1.44,2.72,2.72,0,0,0,1.71.55,2.89,2.89,0,0,0,1.78-.57,3.37,3.37,0,0,0,1.15-1.68,7.3,7.3,0,0,0,.39-2.44,6.14,6.14,0,0,0-.3-2,2.85,2.85,0,0,0-1-1.43A2.74,2.74,0,0,0,103,74.52Z" fill="#0098c5"/><path d="M118.34,83.38c.18.3,0,.66-.21,1.74a.44.44,0,0,1-.32.35,10.88,10.88,0,0,1-1.25.25,9.76,9.76,0,0,1-1,.06A6,6,0,0,1,114,85.6a2.34,2.34,0,0,1-1.71-1.74,5,5,0,0,1-.16-1.29c0-.11,0-.26,0-.46s0-.81.1-1.86l.26-5.45h-1.23a.42.42,0,0,1-.41-.43c0-.43.05-1,.07-1.7a.42.42,0,0,1,.41-.4h1.34c0-.47.09-1.22.13-2.26a.43.43,0,0,1,.32-.4l1.06-.23,1.1-.28a.42.42,0,0,1,.53.42c0,1-.07,1.88-.07,2.75h2.51a.42.42,0,0,1,.41.43c0,.71,0,1.27-.06,1.7a.4.4,0,0,1-.41.4h-2.54c-.16,3.55-.25,5.61-.25,6.17a4.11,4.11,0,0,0,.16,1.26,1.1,1.1,0,0,0,.5.64,1.52,1.52,0,0,0,.74.2,4.3,4.3,0,0,0,.61,0A.8.8,0,0,1,118.34,83.38Z" fill="#0098c5"/><path d="M119.77,84.93l-.15-1.69a.55.55,0,0,1,.75-.55,7.81,7.81,0,0,0,1.09.37,5.7,5.7,0,0,0,1.45.21,3,3,0,0,0,1.11-.18,1.37,1.37,0,0,0,.67-.52,1.35,1.35,0,0,0,.22-.73,1.58,1.58,0,0,0,0-.32,1.5,1.5,0,0,0-.1-.3,2.62,2.62,0,0,0-.45-.61,6.66,6.66,0,0,0-.5-.45l-.62-.56-1.38-1.26a6.06,6.06,0,0,1-.79-.94,4.13,4.13,0,0,1-.5-1,3.62,3.62,0,0,1-.16-1.08,3.56,3.56,0,0,1,.51-1.83,3,3,0,0,1,1.5-1.26,6,6,0,0,1,2.31-.4,16.91,16.91,0,0,1,3.11.33.49.49,0,0,1,.4.46l.09,1.67a.44.44,0,0,1-.59.43,5.77,5.77,0,0,0-1.95-.36,4.15,4.15,0,0,0-1.17.15,1.31,1.31,0,0,0-.72.46,1.16,1.16,0,0,0-.22.69,1.35,1.35,0,0,0,.07.44,1.66,1.66,0,0,0,.24.45,3.39,3.39,0,0,0,.4.45l.94.82c.48.41.9.78,1.26,1.12a5.68,5.68,0,0,1,.88,1A4.17,4.17,0,0,1,128,81a3.67,3.67,0,0,1,.19,1.17,3.38,3.38,0,0,1-.53,1.82A3.48,3.48,0,0,1,126,85.31a5.86,5.86,0,0,1-2.41.47,14.32,14.32,0,0,1-1.68-.12,14,14,0,0,1-1.85-.36A.43.43,0,0,1,119.77,84.93Z" fill="#0098c5"/></svg>