<svg id="Layer_1" data-name="Layer 1" xmlns="http://www.w3.org/2000/svg" xmlns:xlink="http://www.w3.org/1999/xlink" viewBox="0 0 90.83 32.79"><defs><linearGradient id="linear-gradient" x1="36.35" y1="21.8" x2="77.78" y2="21.8" gradientUnits="userSpaceOnUse"><stop offset="0" stop-color="#069"/><stop offset="1" stop-color="#0098c5"/></linearGradient></defs><path d="M71.79,4l0,2.42V9.76l-.88,1A1.14,1.14,0,0,0,70.69,12l1.07,1.76V18c0,.12-.1.15-.22.15H69.39c-.15,0-.22-.06-.22-.22V4c0-.16.07-.23.22-.23h2.15c.16,0,.22.07.25.23Zm-4.6,11.47a.21.21,0,0,1,.15.19,1.43,1.43,0,0,1-.31.67,8.29,8.29,0,0,1-.82,1,3.75,3.75,0,0,1-2.93,1.08A5,5,0,0,1,61,17.86a3.57,3.57,0,0,1-1.48-1.45A3.88,3.88,0,0,1,59,14.3V11.46a4,4,0,0,1,.54-2.11A3.75,3.75,0,0,1,61,7.93a4.65,4.65,0,0,1,2.24-.51,4.23,4.23,0,0,1,2.61.76,2.87,2.87,0,0,1,.73.7,3.9,3.9,0,0,1,.54.75,1.43,1.43,0,0,1,.18.47.19.19,0,0,1-.15.19l-2,1h-.09c-.07,0-.1,0-.13,0a.91.91,0,0,1-.1-.16c0-.06-.09-.12-.12-.19a1.72,1.72,0,0,0-1.48-1.1,1.53,1.53,0,0,0-1.17.47,1.57,1.57,0,0,0-.47,1.17V14.3a1.64,1.64,0,0,0,.47,1.2,1.53,1.53,0,0,0,1.17.47,1.38,1.38,0,0,0,.85-.28,3.1,3.1,0,0,0,.63-.82c.12-.29.25-.44.35-.44a.11.11,0,0,1,.09,0l2,1ZM54.1,14.08H51.67a.6.6,0,0,0-.6.63v.35a.6.6,0,0,0,.16.47.56.56,0,0,0,.44.19h.88c.73,0,1.23-.41,1.52-1.29a3.43,3.43,0,0,1,0-.35Zm2.62,3.81c0,.16-.1.22-.26.22H54.54a.24.24,0,0,1-.25-.18c0-.16-.1-.23-.13-.23a4,4,0,0,0-.63.23,3,3,0,0,1-1,.18h-.88A3.72,3.72,0,0,1,50,17.74a3.16,3.16,0,0,1-1.13-1.11,2.86,2.86,0,0,1-.41-1.57v-.13a3,3,0,0,1,.41-1.58A3.06,3.06,0,0,1,50,12.28a3.56,3.56,0,0,1,1.67-.41h2.21c.16,0,.22-.06.22-.19l0-.31a1.56,1.56,0,0,0-.51-1.14,1.66,1.66,0,0,0-1.13-.41,1.28,1.28,0,0,0-.66.19,2.32,2.32,0,0,0-.6.5.63.63,0,0,0-.16.26l-.19.28a.73.73,0,0,1-.13.19s-.06,0-.12,0a.86.86,0,0,0-.13,0l-1.86-1c-.09,0-.16-.09-.16-.16a2,2,0,0,1,.32-.69,4.42,4.42,0,0,1,.79-1,4,4,0,0,1,2.9-1,4.57,4.57,0,0,1,2.24.51,3.3,3.3,0,0,1,1.51,1.42,4.08,4.08,0,0,1,.54,2.11v6.43ZM44,14.08v-2.4a1.83,1.83,0,0,0-.19-.82,1.64,1.64,0,0,0-.6-.6,1.85,1.85,0,0,0-.82-.22,1.56,1.56,0,0,0-1.17.47,1.61,1.61,0,0,0-.47,1.17v2.4a1.65,1.65,0,0,0,2.81,1.17A1.58,1.58,0,0,0,44,14.08Zm2.65,0a4.24,4.24,0,0,1-.54,2.11,3.62,3.62,0,0,1-1.48,1.42,4.17,4.17,0,0,1-2.11.5,2.93,2.93,0,0,1-1.17-.22,3.37,3.37,0,0,0-.66-.22c-.07,0-.1.07-.13.22s-.13.22-.25.22h-2c-.16,0-.22-.06-.22-.22V4c0-.16.06-.23.22-.23h2.18a.21.21,0,0,1,.22.23V7.87c0,.15,0,.25.16.25s.25-.1.63-.22a3.11,3.11,0,0,1,1.2-.25A4.19,4.19,0,0,1,44.26,8a5.17,5.17,0,0,1,1.26.85,4.8,4.8,0,0,1,.82,1.26,4.32,4.32,0,0,1,.29,1.61v2.4Z" fill="#0098c5" fill-rule="evenodd"/><path d="M35.65,25a5,5,0,0,1-.28,1.74A3.44,3.44,0,0,1,33.19,29a4.59,4.59,0,0,1-1.76.32,4.44,4.44,0,0,1-2.62-.73,4.55,4.55,0,0,1-.82-.82,4.31,4.31,0,0,1-.41-.63,4.39,4.39,0,0,1-.47-1.92,4.65,4.65,0,0,1,4.6-4.7h.69v2.65h-.69a2,2,0,0,0-2,2.05,1.77,1.77,0,0,0,1.67,1.7,1.6,1.6,0,0,0,1.17-.5,1.5,1.5,0,0,0,.51-1.17V14.11c0-.16-.07-.22-.16-.22a1.66,1.66,0,0,0-.38.09,2.26,2.26,0,0,1-.54.16,2.93,2.93,0,0,1-.6.06,4.52,4.52,0,0,1-2.2-.5,3.38,3.38,0,0,1-1.48-1.42,4,4,0,0,1-.54-2.11V4c0-.16.06-.23.22-.23h2.18c.15,0,.22.07.22.23v6.21a1.58,1.58,0,0,0,.47,1.16,1.54,1.54,0,0,0,1.13.48,1.47,1.47,0,0,0,1.17-.51,1.44,1.44,0,0,0,.51-1.13V4c0-.16.06-.23.22-.23h2.14c.16,0,.22.07.22.23V25ZM22.12,10.17H19.73a.59.59,0,0,0-.44.16.61.61,0,0,0-.19.47v.35a.82.82,0,0,0,.15.47.69.69,0,0,0,.48.19h.85c.72,0,1.23-.44,1.54-1.3,0,0,0-.12,0-.34ZM24.74,14c0,.16-.06.22-.22.22H22.57c-.13,0-.19-.06-.26-.22s-.06-.22-.12-.22a5.37,5.37,0,0,0-.6.22,2.53,2.53,0,0,1-1,.22h-.85a3.14,3.14,0,0,1-1.67-.41,2.89,2.89,0,0,1-1.17-1.07,3.34,3.34,0,0,1-.38-1.57V11a3.18,3.18,0,0,1,.38-1.58A3.14,3.14,0,0,1,18,8.34,3.71,3.71,0,0,1,19.73,8H21.9c.16,0,.22-.06.22-.22V7.42a1.79,1.79,0,0,0-.5-1.1,1.58,1.58,0,0,0-1.14-.41,1.73,1.73,0,0,0-.69.16,1.69,1.69,0,0,0-.57.5c-.09.1-.12.19-.19.26l-.15.28a.68.68,0,0,0-.13.19.21.21,0,0,1-.13,0,.18.18,0,0,1-.12,0l-1.89-1c-.1-.06-.13-.13-.13-.16a1.76,1.76,0,0,1,.28-.72,4.77,4.77,0,0,1,.82-1,3.9,3.9,0,0,1,2.9-1A5,5,0,0,1,22.72,4a3.77,3.77,0,0,1,1.49,1.42,4,4,0,0,1,.53,2.11V14ZM11.62,10.17V7.74a1.51,1.51,0,0,0-.22-.82,1.33,1.33,0,0,0-.6-.57A1.36,1.36,0,0,0,10,6.13,1.62,1.62,0,0,0,8.34,7.74v2.43a1.64,1.64,0,0,0,.48,1.16,1.59,1.59,0,0,0,1.16.48,1.56,1.56,0,0,0,1.17-.48,1.58,1.58,0,0,0,.47-1.16Zm2.62,0a4.2,4.2,0,0,1-.5,2.05,3.84,3.84,0,0,1-1.46,1.45,4.21,4.21,0,0,1-2.08.53,2.66,2.66,0,0,1-1-.22,5.31,5.31,0,0,0-.66-.25c-.09,0-.16.1-.16.29V17.8c0,.16-.06.25-.22.25H6a.22.22,0,0,1-.22-.25V4A.2.2,0,0,1,6,3.73h2c.13,0,.19.07.25.23s.1.22.13.22A5.88,5.88,0,0,0,8.94,4a3.13,3.13,0,0,1,1.23-.23,4.19,4.19,0,0,1,2.08.51,4.06,4.06,0,0,1,1.49,1.42,4.13,4.13,0,0,1,.5,2.08v2.43Z" fill="#069" fill-rule="evenodd"/><polygon points="36.35 20.48 36.35 23.13 77.78 23.13 77.78 20.48 36.35 20.48 36.35 20.48" fill-rule="evenodd" fill="url(#linear-gradient)"/><path d="M79,10.42H75.32l2.3-2.36a.29.29,0,0,0,.1-.23c0-.12-.1-.18-.25-.18H74.75l-.15.06-3.25,3.5a.74.74,0,0,0-.1.44l4,6.37.22.09H78.1c.16,0,.25,0,.25-.15a.42.42,0,0,0-.06-.19l-2.94-4.7H79c3.75,0,4.42,4.6,2.3,6.53a3.38,3.38,0,0,1-2.3.88H77.78v2.65H79A5.76,5.76,0,0,0,84.5,19.6C86.17,15.84,84.4,10.42,79,10.42Z" fill="#0098c5" fill-rule="evenodd"/></svg>