<svg id="Layer_1" data-name="Layer 1" xmlns="http://www.w3.org/2000/svg" viewBox="0 0 90.83 32.79"><path d="M5.84,22.44l.2-2,.52-7.08.18-3.07,1.64,0,1.52,0c.08.48.14.82.19,1s.12.52.24,1,.27,1,.46,1.62q.42,1.44.75,2.85l.6,2.55,1-3.27,1.53-4.25.16-.5c0-.18.15-.52.28-1l1.66,0,1.56,0c-.07,1.71-.13,3.6-.17,5.67s-.05,3.62-.05,4.64c0,.49,0,1.11,0,1.85l-1.06,0-1.09,0c0-.61,0-1.1.06-1.5l.14-5.3c0-.75,0-1.48,0-2.21v-.72l-2.89,8.67L13,22.44l-1,0-1.11,0L9.51,17l-.33-1.23-.49-1.81c0-.18-.08-.32-.11-.43s-.07-.35-.15-.73l-.1,1.14c0,.36-.07,1-.12,1.82L7.9,21.23c0,.27,0,.68,0,1.21l-1,0Z" fill="#069"/><path d="M27.28,20.42c-.07.35-.17,1-.29,1.89a12.71,12.71,0,0,1-1.43.27,9.18,9.18,0,0,1-1.17.07,6.48,6.48,0,0,1-1.84-.23,3.18,3.18,0,0,1-1.43-.85,3.72,3.72,0,0,1-.9-1.51,5.93,5.93,0,0,1-.29-1.89,6.86,6.86,0,0,1,.33-2.12,4.67,4.67,0,0,1,.95-1.69,3.49,3.49,0,0,1,1.39-.92,4.92,4.92,0,0,1,1.62-.27,5.1,5.1,0,0,1,1.53.22,2.76,2.76,0,0,1,1.21.75,3.3,3.3,0,0,1,.75,1.24A4.57,4.57,0,0,1,28,17a5.1,5.1,0,0,1-.08.86H22.14c0,.22,0,.4,0,.53a3.2,3.2,0,0,0,.18,1.09,2.22,2.22,0,0,0,.52.85,2.15,2.15,0,0,0,.83.51,2.88,2.88,0,0,0,.94.17,5.63,5.63,0,0,0,1.17-.14A11.4,11.4,0,0,0,27.28,20.42Zm-5.08-3.6h3.68c0-.29,0-.5,0-.63a2.59,2.59,0,0,0-.11-.47,1.63,1.63,0,0,0-.22-.46,1.72,1.72,0,0,0-.33-.33,1.49,1.49,0,0,0-.44-.21,2.19,2.19,0,0,0-.53-.07,1.77,1.77,0,0,0-.64.12,1.84,1.84,0,0,0-.57.34,2,2,0,0,0-.42.49,2.43,2.43,0,0,0-.24.53C22.31,16.31,22.26,16.54,22.2,16.82Z" fill="#069"/><path d="M37.28,22.44l-1,0-1.08,0,.07-1.55a6.37,6.37,0,0,1-.6.78,2.88,2.88,0,0,1-.61.52,3.12,3.12,0,0,1-.79.35,3.17,3.17,0,0,1-.88.11,3.22,3.22,0,0,1-2.53-1.19,3.63,3.63,0,0,1-.69-1.34,6.23,6.23,0,0,1-.22-1.63,6.58,6.58,0,0,1,.4-2.27,4.82,4.82,0,0,1,1.07-1.8,4,4,0,0,1,1.55-1,5.83,5.83,0,0,1,1.85-.28,9.93,9.93,0,0,1,1.61.15q.06-1.15.06-2.43v-.61l1.14,0,1.14,0q-.16,2.26-.32,6.16C37.34,19,37.28,21,37.28,22.44ZM35.34,15a3.85,3.85,0,0,0-1.13-.18A3.57,3.57,0,0,0,33,15a2.36,2.36,0,0,0-1,.67,3.22,3.22,0,0,0-.68,1.21,4.89,4.89,0,0,0-.23,1.42,3.62,3.62,0,0,0,.21,1.26,1.93,1.93,0,0,0,.68.9,1.68,1.68,0,0,0,1,.33,1.86,1.86,0,0,0,.79-.17,1.91,1.91,0,0,0,.64-.54,2.91,2.91,0,0,0,.49-.93,6.21,6.21,0,0,0,.29-1.51C35.28,17.2,35.31,16.32,35.34,15Z" fill="#069"/><path d="M39.22,22.44c.08-.89.14-1.64.17-2.24,0-.95.1-2,.14-3.28s.07-2.42.08-3.54l1.15,0,1.14,0c-.07,1-.13,2-.17,3s-.07,2-.09,3.22,0,2.17,0,2.88l-1.15,0Zm.43-10.61c0-.61,0-1.08,0-1.41v-.28l1.16,0,1.14,0a3.89,3.89,0,0,0,0,.51l0,1.18-1.1,0Z" fill="#069"/><path d="M49.77,20.38a7.54,7.54,0,0,1-.12.83c0,.31-.1.69-.16,1.15a8.57,8.57,0,0,1-2.22.29,5.43,5.43,0,0,1-1.22-.13A3.26,3.26,0,0,1,45,22a3.47,3.47,0,0,1-.89-.9,4.23,4.23,0,0,1-.58-1.36,7.33,7.33,0,0,1,.13-3.8,4.24,4.24,0,0,1,.93-1.69,3.25,3.25,0,0,1,1.36-.89,5.81,5.81,0,0,1,1.67-.23,9.51,9.51,0,0,1,1,.06,9.14,9.14,0,0,1,1.28.28l.12,2A5.64,5.64,0,0,0,48,15a2.42,2.42,0,0,0-1,.21,2,2,0,0,0-.82.64,2.67,2.67,0,0,0-.48,1,4.73,4.73,0,0,0-.15,1.19,4.26,4.26,0,0,0,.23,1.46,1.85,1.85,0,0,0,.8,1,2.38,2.38,0,0,0,1.28.34,5.17,5.17,0,0,0,.86-.1A5.49,5.49,0,0,0,49.77,20.38Z" fill="#069"/><path d="M53,22.42a1.38,1.38,0,0,1-1.39-1.48l.1-1.6.16-3.87.1-3.86v0a1.32,1.32,0,0,1,1.33-1.29h.32l1.51,0,1.63,0a11.32,11.32,0,0,1,1.71.13,3.77,3.77,0,0,1,2.4,1.33,4.46,4.46,0,0,1,.71,1.14,7,7,0,0,1,.42,1.4,8.19,8.19,0,0,1,.14,1.57,9.11,9.11,0,0,1-.46,2.92A5.64,5.64,0,0,1,60.3,21a4.25,4.25,0,0,1-2,1.16,11.59,11.59,0,0,1-2.56.26l-2.67,0ZM54,20a.59.59,0,0,0,.56.61h.7a10.89,10.89,0,0,0,1.32-.08,4.74,4.74,0,0,0,1-.26,2.46,2.46,0,0,0,.88-.61,3.53,3.53,0,0,0,.73-1,5.35,5.35,0,0,0,.43-1.28,6.74,6.74,0,0,0,.15-1.43,5.21,5.21,0,0,0-.4-2.2,2.66,2.66,0,0,0-1.06-1.23,4.06,4.06,0,0,0-2-.38c-.43,0-.91,0-1.43,0a.64.64,0,0,0-.63.61Z" fill="#0098c5"/><path d="M67.81,13.17a5,5,0,0,1,1.73.3,3.77,3.77,0,0,1,1.41.91,4,4,0,0,1,.87,1.47,5.84,5.84,0,0,1,.29,1.83,6.14,6.14,0,0,1-.31,2,4.72,4.72,0,0,1-.89,1.64,3.53,3.53,0,0,1-1.45,1,4.91,4.91,0,0,1-1.85.34,5,5,0,0,1-1.73-.3,3.82,3.82,0,0,1-1.4-.93,4,4,0,0,1-.88-1.49,5.69,5.69,0,0,1-.3-1.85,6.46,6.46,0,0,1,.27-1.87,4.42,4.42,0,0,1,.86-1.58,3.86,3.86,0,0,1,1.5-1.08A4.68,4.68,0,0,1,67.81,13.17Zm0,1.83a2.1,2.1,0,0,0-1.22.38,2.23,2.23,0,0,0-.79,1.13,4.76,4.76,0,0,0-.27,1.63,4.25,4.25,0,0,0,.22,1.38,2.11,2.11,0,0,0,.7,1,1.88,1.88,0,0,0,1.17.37,1.94,1.94,0,0,0,1.2-.39,2.27,2.27,0,0,0,.79-1.14,5.12,5.12,0,0,0,.26-1.66,4.33,4.33,0,0,0-.2-1.34,2,2,0,0,0-.69-1A1.84,1.84,0,0,0,67.81,15Z" fill="#0098c5"/><path d="M78.23,21c.12.2,0,.45-.15,1.18a.28.28,0,0,1-.22.24,7.76,7.76,0,0,1-.84.17,6.08,6.08,0,0,1-.71,0,4.13,4.13,0,0,1-1-.12,1.56,1.56,0,0,1-.76-.44,1.63,1.63,0,0,1-.4-.74,3.66,3.66,0,0,1-.11-.88c0-.08,0-.18,0-.31s0-.55.06-1.27l.18-3.7h-.83a.28.28,0,0,1-.28-.29c0-.3,0-.68,0-1.15a.29.29,0,0,1,.28-.28h.91q0-.47.09-1.53a.28.28,0,0,1,.22-.27l.72-.16.75-.19a.28.28,0,0,1,.35.29c0,.65,0,1.27,0,1.86h1.7a.28.28,0,0,1,.28.3c0,.48,0,.86,0,1.15a.27.27,0,0,1-.28.27H76.4c-.11,2.42-.17,3.81-.17,4.19a2.72,2.72,0,0,0,.11.86.77.77,0,0,0,.34.44,1,1,0,0,0,.5.13,2,2,0,0,0,.41,0A.57.57,0,0,1,78.23,21Z" fill="#0098c5"/><path d="M79.2,22.08l-.1-1.16a.36.36,0,0,1,.5-.37,5.65,5.65,0,0,0,.75.26,4,4,0,0,0,1,.13,2,2,0,0,0,.75-.12.93.93,0,0,0,.46-.35.91.91,0,0,0,.15-.5,1.36,1.36,0,0,0,0-.21c0-.07,0-.13-.07-.21l-.12-.2-.19-.21c-.07-.08-.19-.18-.33-.31l-.43-.38c-.41-.36-.72-.65-.93-.86a3.42,3.42,0,0,1-.54-.63,2.77,2.77,0,0,1-.34-.69,2.58,2.58,0,0,1-.11-.73A2.31,2.31,0,0,1,80,14.3a2,2,0,0,1,1-.86,4.12,4.12,0,0,1,1.57-.27,11.46,11.46,0,0,1,2.11.22.34.34,0,0,1,.27.31L85,14.84a.29.29,0,0,1-.4.29,4,4,0,0,0-1.32-.24,2.73,2.73,0,0,0-.8.1.89.89,0,0,0-.49.31.8.8,0,0,0-.15.47,1,1,0,0,0,0,.3,1,1,0,0,0,.16.3,2.61,2.61,0,0,0,.27.31l.64.56c.33.28.61.53.86.76a4.12,4.12,0,0,1,.6.68,3.3,3.3,0,0,1,.36.73,2.71,2.71,0,0,1,.12.79,2.27,2.27,0,0,1-.36,1.24,2.33,2.33,0,0,1-1.09.89,3.92,3.92,0,0,1-1.63.32,8.66,8.66,0,0,1-1.15-.08,9.21,9.21,0,0,1-1.25-.25A.28.28,0,0,1,79.2,22.08Z" fill="#0098c5"/></svg>