<svg id="Layer_1" data-name="Layer 1" xmlns="http://www.w3.org/2000/svg" xmlns:xlink="http://www.w3.org/1999/xlink" viewBox="0 0 140.09 98.38"><defs><linearGradient id="linear-gradient" x1="43.74" y1="13.14" x2="78.07" y2="43.91" gradientUnits="userSpaceOnUse"><stop offset="0" stop-color="#0098c5"/><stop offset="1" stop-color="#069"/></linearGradient><linearGradient id="linear-gradient-2" x1="38.9" y1="18.54" x2="73.22" y2="49.32" xlink:href="#linear-gradient"/><linearGradient id="linear-gradient-3" x1="50.65" y1="5.43" x2="84.98" y2="36.21" xlink:href="#linear-gradient"/><linearGradient id="linear-gradient-4" x1="43.75" y1="13.13" x2="78.07" y2="43.91" xlink:href="#linear-gradient"/><linearGradient id="linear-gradient-5" x1="47.48" y1="8.97" x2="81.81" y2="39.74" xlink:href="#linear-gradient"/><linearGradient id="linear-gradient-6" x1="36.89" y1="20.78" x2="71.22" y2="51.56" xlink:href="#linear-gradient"/><linearGradient id="linear-gradient-7" x1="35.77" y1="22.03" x2="70.09" y2="52.81" xlink:href="#linear-gradient"/><linearGradient id="linear-gradient-8" x1="37.48" y1="20.12" x2="71.81" y2="50.89" xlink:href="#linear-gradient"/><linearGradient id="linear-gradient-9" x1="36.27" y1="21.47" x2="70.59" y2="52.25" xlink:href="#linear-gradient"/><linearGradient id="linear-gradient-10" x1="50.99" y1="5.05" x2="85.32" y2="35.83" xlink:href="#linear-gradient"/><linearGradient id="linear-gradient-11" x1="50.29" y1="5.84" x2="84.61" y2="36.61" xlink:href="#linear-gradient"/><linearGradient id="linear-gradient-12" x1="56.69" y1="81.61" x2="117.69" y2="81.61" gradientUnits="userSpaceOnUse"><stop offset="0" stop-color="#069"/><stop offset="1" stop-color="#0098c5"/></linearGradient></defs><path d="M51.39,16v.7c.22,0,.34-.15.34-.3S51.63,16,51.39,16Z" fill="#0098c5"/><path d="M50.72,15c0,.14.15.28.34.34v-.7A.37.37,0,0,0,50.72,15Z" fill="#0098c5"/><path d="M51.22,13.44a2.21,2.21,0,1,0,2.21,2.21A2.21,2.21,0,0,0,51.22,13.44Zm.17,3.68v.33h-.11a.23.23,0,0,1-.22-.23v-.1a.88.88,0,0,1-.89-.87h.36a.18.18,0,0,1,.17.13.46.46,0,0,0,.36.28v-.75c-.41-.1-.89-.36-.89-.9s.22-.77.89-.82v-.34h.1a.23.23,0,0,1,.23.23v.11a.86.86,0,0,1,.86.88H52a.17.17,0,0,1-.18-.13.41.41,0,0,0-.38-.29v.76c.51.11.87.4.88.82C52.3,16.85,51.92,17.09,51.39,17.12Z" fill="#0098c5"/><path d="M45.65,41.09v.7c.23,0,.35-.15.35-.3A.39.39,0,0,0,45.65,41.09Z" fill="#0098c5"/><path d="M45,40.12c0,.14.14.28.33.34v-.7C45.14,39.8,45,39.91,45,40.12Z" fill="#0098c5"/><path d="M45.49,38.56a2.21,2.21,0,1,0,2.21,2.21A2.21,2.21,0,0,0,45.49,38.56Zm.16,3.68v.33h-.1a.23.23,0,0,1-.23-.23v-.1a.88.88,0,0,1-.88-.87h.35a.21.21,0,0,1,.18.13.42.42,0,0,0,.35.28V41c-.4-.1-.88-.36-.88-.9s.21-.77.88-.82V39h.1a.23.23,0,0,1,.23.23v.11a.87.87,0,0,1,.87.88h-.31a.18.18,0,0,1-.18-.13c0-.15-.14-.25-.38-.29v.76c.52.11.87.4.89.82C46.57,42,46.18,42.21,45.65,42.24Z" fill="#0098c5"/><path d="M54.17,45.58v1.18c.38-.06.59-.25.59-.51S54.58,45.69,54.17,45.58Z" fill="#0098c5"/><path d="M53,43.93a.73.73,0,0,0,.57.57V43.32A.63.63,0,0,0,53,43.93Z" fill="#0098c5"/><path d="M53.89,41.27A3.76,3.76,0,1,0,57.65,45,3.75,3.75,0,0,0,53.89,41.27Zm.28,6.27v.55H54a.39.39,0,0,1-.39-.39v-.17a1.49,1.49,0,0,1-1.51-1.47h.61a.32.32,0,0,1,.3.22.74.74,0,0,0,.6.46V45.48c-.68-.17-1.51-.63-1.51-1.55,0-.69.38-1.3,1.51-1.38V42h.18a.39.39,0,0,1,.38.39v.2A1.47,1.47,0,0,1,55.65,44h-.52a.32.32,0,0,1-.31-.22c-.07-.26-.24-.43-.65-.49V44.6c.88.2,1.48.69,1.51,1.39C55.73,47.08,55.08,47.48,54.17,47.54Z" fill="#0098c5"/><path d="M54.51,9.77v.43c.14,0,.21-.09.21-.19S54.66,9.81,54.51,9.77Z" fill="#0098c5"/><path d="M54.1,9.17a.25.25,0,0,0,.2.21V9A.23.23,0,0,0,54.1,9.17Z" fill="#0098c5"/><path d="M54.41,8.21a1.36,1.36,0,1,0,1.36,1.36A1.36,1.36,0,0,0,54.41,8.21Zm.1,2.27v.2h-.06a.15.15,0,0,1-.15-.14v-.06a.53.53,0,0,1-.54-.53H54a.12.12,0,0,1,.11.07.27.27,0,0,0,.21.17V9.74c-.24-.07-.54-.23-.54-.56s.14-.47.54-.5V8.46h.07a.14.14,0,0,1,.14.14v.08a.52.52,0,0,1,.53.53h-.19a.12.12,0,0,1-.11-.08c0-.09-.08-.15-.23-.18v.47c.32.07.53.25.55.5S54.84,10.46,54.51,10.48Z" fill="#0098c5"/><path d="M58.33,52.23v.42c.14,0,.21-.09.21-.18S58.48,52.27,58.33,52.23Z" fill="#069"/><path d="M57.92,51.63c0,.08.09.17.21.21v-.43A.22.22,0,0,0,57.92,51.63Z" fill="#069"/><path d="M58.23,50.67A1.36,1.36,0,1,0,59.59,52,1.36,1.36,0,0,0,58.23,50.67Zm.1,2.27v.19h-.06a.14.14,0,0,1-.14-.14v-.06a.54.54,0,0,1-.55-.53h.22a.12.12,0,0,1,.11.08.27.27,0,0,0,.22.17v-.46c-.25-.06-.55-.22-.55-.56s.14-.47.55-.5v-.21h.06a.14.14,0,0,1,.14.14v.07a.53.53,0,0,1,.53.54h-.19a.12.12,0,0,1-.11-.08c0-.1-.08-.16-.23-.18v.47c.32.07.53.24.55.5S58.66,52.92,58.33,52.94Z" fill="#069"/><path d="M45.65,19.47v.33c.11,0,.16-.07.16-.14S45.76,19.5,45.65,19.47Z" fill="#0098c5"/><path d="M45.33,19a.19.19,0,0,0,.16.16v-.33C45.4,18.85,45.33,18.9,45.33,19Z" fill="#0098c5"/><path d="M45.57,18.24a1.07,1.07,0,1,0,1.07,1.07A1.07,1.07,0,0,0,45.57,18.24ZM45.65,20v.16h0a.11.11,0,0,1-.11-.11V20a.43.43,0,0,1-.43-.42h.17a.11.11,0,0,1,.09.07.22.22,0,0,0,.17.13v-.36c-.2-.05-.43-.18-.43-.44s.11-.37.43-.39v-.17h0a.11.11,0,0,1,.11.11v.06a.42.42,0,0,1,.42.42h-.15a.1.1,0,0,1-.09-.06.18.18,0,0,0-.18-.14v.36c.25.06.42.2.43.4S45.9,20,45.65,20Z" fill="#0098c5"/><path d="M61.26,28.64v-.39c.12,0,.17.07.19.15a.1.1,0,0,0,.1.07h.15a.43.43,0,0,0-.44-.44V28a.11.11,0,0,0-.11-.12h-.06V28c-.34,0-.45.21-.45.42s.25.41.45.46v.38a.25.25,0,0,1-.18-.14.1.1,0,0,0-.09-.07h-.18a.45.45,0,0,0,.45.44v0a.12.12,0,0,0,.12.12h0v-.16c.27,0,.47-.14.45-.47S61.52,28.7,61.26,28.64Zm-.17,0c-.09,0-.17-.1-.17-.17a.19.19,0,0,1,.17-.19Zm.17.67v-.35a.2.2,0,0,1,.18.2C61.44,29.21,61.38,29.27,61.26,29.28Z" fill="url(#linear-gradient)"/><path d="M57.07,34.4v-.81c.26,0,.36.15.4.31a.22.22,0,0,0,.2.14H58a.92.92,0,0,0-.93-.93V33a.25.25,0,0,0-.25-.24h-.11v.36c-.71.06-1,.44-1,.88a1.08,1.08,0,0,0,1,1v.8a.49.49,0,0,1-.38-.29.2.2,0,0,0-.19-.14h-.38a.94.94,0,0,0,1,.93v.1a.25.25,0,0,0,.25.25h.11v-.35c.57,0,1-.29,1-1C58,34.83,57.62,34.52,57.07,34.4Zm-.36-.06a.48.48,0,0,1-.36-.37.4.4,0,0,1,.36-.38Zm.36,1.42V35a.42.42,0,0,1,.37.42C57.44,35.6,57.31,35.73,57.07,35.76Z" fill="url(#linear-gradient-2)"/><path d="M60.91,17.73h.18v-.55c.91-.05,1.57-.46,1.52-1.55,0-.71-.64-1.2-1.52-1.4V12.94a.67.67,0,0,1,.65.49.33.33,0,0,0,.31.23h.52a1.47,1.47,0,0,0-1.48-1.49V12a.38.38,0,0,0-.2-.34v6.1Zm.18-2.51a.65.65,0,0,1,.59.67c0,.25-.21.45-.59.51Z" fill="url(#linear-gradient-3)"/><path d="M56,25.09v.06a.14.14,0,0,0,.14.14h.07v-.2c.34,0,.58-.17.56-.57s-.23-.44-.56-.51v-.48a.25.25,0,0,1,.24.18.11.11,0,0,0,.11.08h.2a.54.54,0,0,0-.55-.55v-.08A.14.14,0,0,0,56,23H56v.21c-.42,0-.56.26-.56.52s.31.51.56.57v.47a.27.27,0,0,1-.22-.18.13.13,0,0,0-.11-.08h-.23A.56.56,0,0,0,56,25.09Zm.21-.72c.15,0,.22.12.22.24s-.08.17-.22.19Zm-.42-.62a.23.23,0,0,1,.21-.22V24C55.83,23.93,55.74,23.84,55.74,23.75Z" fill="url(#linear-gradient-4)"/><path d="M91.28,20h-11V9a3.26,3.26,0,0,0-3.26-3.26H64.15A3.26,3.26,0,0,0,60.89,9v1.86a3.78,3.78,0,0,1,0,7.55V20h-11a3.26,3.26,0,0,0-3.26,3.26v.06a6.39,6.39,0,0,1,0,12.78v.07a3.26,3.26,0,0,0,3.26,3.26h11v11a3.26,3.26,0,0,0,3.26,3.26H77.06a3.26,3.26,0,0,0,3.26-3.26v-11h11a3.26,3.26,0,0,0,3.26-3.26V23.25A3.26,3.26,0,0,0,91.28,20ZM56.06,22.77a1.39,1.39,0,1,1-1.4,1.39A1.39,1.39,0,0,1,56.06,22.77ZM56.89,37a2.37,2.37,0,1,1,2.37-2.37A2.37,2.37,0,0,1,56.89,37Zm4.29-7.15a1.13,1.13,0,1,1,0-2.25,1.13,1.13,0,0,1,0,2.25Zm2.76,18.78a1.39,1.39,0,1,1,1.39-1.39A1.4,1.4,0,0,1,63.94,48.67Z" fill="url(#linear-gradient-5)"/><path d="M46.84,34.9h.3V34c1.54-.09,2.65-.79,2.56-2.62-.05-1.2-1.07-2-2.56-2.36V26.8c.7.1,1,.4,1.09.83a.55.55,0,0,0,.53.38h.89a2.5,2.5,0,0,0-2.51-2.52v-.34a.66.66,0,0,0-.47-.63V34.88Zm.3-4.25c.69.17,1,.57,1,1.13s-.35.77-1,.87Z" fill="url(#linear-gradient-6)"/><path d="M64,47.12v-.47a.25.25,0,0,1,.24.18.11.11,0,0,0,.11.08h.2a.55.55,0,0,0-.55-.55v-.07a.14.14,0,0,0-.14-.14h-.07v.21c-.42,0-.56.26-.56.52s.31.51.56.57v.47a.27.27,0,0,1-.22-.18.13.13,0,0,0-.11-.08h-.23a.56.56,0,0,0,.56.55v.06a.14.14,0,0,0,.14.14H64v-.2c.34,0,.58-.17.56-.57S64.37,47.2,64,47.12Zm-.21,0c-.12,0-.21-.13-.21-.22a.23.23,0,0,1,.21-.22Zm.21.83v-.43c.15,0,.22.12.22.24S64.18,47.9,64,47.92Z" fill="url(#linear-gradient-7)"/><path d="M45.22,27.83c0,.4.42.82,1,1v-2A1,1,0,0,0,45.22,27.83Z" fill="url(#linear-gradient-8)"/><path d="M46.18,34.24V34a2.53,2.53,0,0,1-2.56-2.49h1a.55.55,0,0,1,.51.37,1.3,1.3,0,0,0,1,.79V30.47c-1.16-.29-2.56-1.06-2.56-2.62,0-1.18.64-2.21,2.56-2.36v-1h.3a.58.58,0,0,1,.19,0V23.31h0a6.39,6.39,0,1,0,0,12.78h0V34.88A.67.67,0,0,1,46.18,34.24Z" fill="url(#linear-gradient-9)"/><path d="M60,13.55c0,.23.25.49.57.58V12.94A.63.63,0,0,0,60,13.55Z" fill="url(#linear-gradient-10)"/><path d="M60.52,17.34v-.17A1.49,1.49,0,0,1,59,15.7h.61a.32.32,0,0,1,.3.21.75.75,0,0,0,.6.47V15.11c-.68-.17-1.51-.63-1.51-1.55,0-.7.37-1.31,1.51-1.39v-.59h.18a.41.41,0,0,1,.19.05v-.75h-.08a3.78,3.78,0,0,0,0,7.56h.08v-.7A.39.39,0,0,1,60.52,17.34Z" fill="url(#linear-gradient-11)"/><path d="M108.87,55.34l-.05,3.57v5l-1.3,1.44a1.7,1.7,0,0,0-.27,1.81l1.57,2.6V76c0,.18-.14.23-.32.23h-3.16c-.23,0-.32-.09-.32-.33V55.34c0-.24.09-.33.32-.33h3.16c.23,0,.32.09.37.33Zm-6.78,16.89a.3.3,0,0,1,.23.28,2.05,2.05,0,0,1-.46,1A12.62,12.62,0,0,1,100.65,75a5.52,5.52,0,0,1-4.31,1.58,7.56,7.56,0,0,1-3.3-.74,5.35,5.35,0,0,1-2.18-2.14,5.72,5.72,0,0,1-.79-3.11V66.38a5.84,5.84,0,0,1,.79-3.11A5.53,5.53,0,0,1,93,61.19a6.92,6.92,0,0,1,3.3-.75,6.2,6.2,0,0,1,3.85,1.12,4.53,4.53,0,0,1,1.07,1,5.85,5.85,0,0,1,.79,1.11,2.13,2.13,0,0,1,.27.7.3.3,0,0,1-.23.28l-2.92,1.48H99a.27.27,0,0,1-.19,0,1.53,1.53,0,0,1-.14-.24c0-.09-.14-.18-.18-.27A2.53,2.53,0,0,0,96.34,64a2.22,2.22,0,0,0-1.72.7,2.28,2.28,0,0,0-.7,1.71v4.18a2.41,2.41,0,0,0,.7,1.77,2.25,2.25,0,0,0,1.72.69,2.08,2.08,0,0,0,1.25-.41,4.52,4.52,0,0,0,.93-1.21c.18-.42.37-.65.51-.65a.19.19,0,0,1,.14,0l2.92,1.44Zm-19.26-2H79.25a.83.83,0,0,0-.65.28.87.87,0,0,0-.23.65v.51a.91.91,0,0,0,.23.69.83.83,0,0,0,.65.28h1.3c1.07,0,1.81-.6,2.23-1.9a4.5,4.5,0,0,1,0-.51Zm3.85,5.61c0,.24-.14.33-.37.33H83.48a.34.34,0,0,1-.37-.28c0-.23-.14-.32-.19-.32a5.14,5.14,0,0,0-.93.32,4.25,4.25,0,0,1-1.44.28h-1.3a5.52,5.52,0,0,1-2.46-.56A4.8,4.8,0,0,1,75.12,74a4.32,4.32,0,0,1-.6-2.32v-.19a4.44,4.44,0,0,1,.6-2.32,4.6,4.6,0,0,1,1.67-1.58,5.26,5.26,0,0,1,2.46-.6H82.5c.24,0,.33-.09.33-.28l0-.46A2.35,2.35,0,0,0,82,64.57a2.46,2.46,0,0,0-1.67-.6,1.93,1.93,0,0,0-1,.28,3.54,3.54,0,0,0-.88.74,1.16,1.16,0,0,0-.23.37l-.28.42a2.09,2.09,0,0,1-.19.28s-.09,0-.18,0-.09,0-.19,0L74.7,64.57c-.14,0-.23-.13-.23-.23a3,3,0,0,1,.47-1,6.33,6.33,0,0,1,1.16-1.44,5.81,5.81,0,0,1,4.27-1.44,6.75,6.75,0,0,1,3.29.75,4.84,4.84,0,0,1,2.23,2.08,6.11,6.11,0,0,1,.79,3.11v9.47ZM67.93,70.24V66.71a2.66,2.66,0,0,0-.28-1.21,2.32,2.32,0,0,0-.88-.88,2.72,2.72,0,0,0-1.21-.32,2.25,2.25,0,0,0-1.72.69,2.33,2.33,0,0,0-.69,1.72v3.53A2.43,2.43,0,0,0,67.28,72a2.31,2.31,0,0,0,.65-1.72Zm3.9,0A6.33,6.33,0,0,1,71,73.35a5.35,5.35,0,0,1-2.18,2.09,6.2,6.2,0,0,1-3.11.74A4.19,4.19,0,0,1,64,75.85a4,4,0,0,0-1-.32c-.09,0-.14.09-.18.32s-.19.33-.37.33H59.62c-.23,0-.33-.09-.33-.33V55.34c0-.24.1-.33.33-.33h3.2a.3.3,0,0,1,.33.33v5.75c0,.23,0,.37.23.37,0,0,.37-.14.93-.32a4.62,4.62,0,0,1,1.76-.37,6.13,6.13,0,0,1,2.27.46,7.44,7.44,0,0,1,1.86,1.26,7.21,7.21,0,0,1,1.21,1.85,6.34,6.34,0,0,1,.42,2.37v3.53Z" fill="#0098c5" fill-rule="evenodd"/><path d="M55.67,86.35a7.33,7.33,0,0,1-.42,2.55,5.12,5.12,0,0,1-1.2,2,5.35,5.35,0,0,1-2,1.25,6.91,6.91,0,0,1-2.6.46,6.66,6.66,0,0,1-3.85-1.06,7.69,7.69,0,0,1-1.21-1.21,8.11,8.11,0,0,1-.6-.93,6.41,6.41,0,0,1-.7-2.83,6.86,6.86,0,0,1,6.78-6.92h1v3.9h-1a3,3,0,0,0-2.93,3,2.62,2.62,0,0,0,2.46,2.51,2.33,2.33,0,0,0,1.72-.75,2.18,2.18,0,0,0,.74-1.72V70.28c0-.23-.09-.32-.23-.32a2.35,2.35,0,0,0-.55.14,4.56,4.56,0,0,1-.79.23,4.14,4.14,0,0,1-.89.09,6.68,6.68,0,0,1-3.24-.74A5,5,0,0,1,44,67.59a5.93,5.93,0,0,1-.79-3.11V55.34c0-.24.1-.33.33-.33h3.2c.23,0,.33.09.33.33v9.14a2.41,2.41,0,0,0,.69,1.72,2.31,2.31,0,0,0,1.67.7,2.19,2.19,0,0,0,1.72-.75,2.15,2.15,0,0,0,.74-1.67V55.34c0-.24.1-.33.33-.33h3.16c.23,0,.32.09.32.33v31ZM35.76,64.48H32.23a.91.91,0,0,0-.65.23.94.94,0,0,0-.28.7v.51a1.15,1.15,0,0,0,.23.7,1,1,0,0,0,.7.28h1.25c1.07,0,1.81-.65,2.28-1.91,0,0,0-.18,0-.51Zm3.85,5.62c0,.23-.09.32-.33.32H36.41c-.19,0-.28-.09-.37-.32s-.1-.33-.19-.33a6,6,0,0,0-.88.33,3.78,3.78,0,0,1-1.49.32H32.23a4.68,4.68,0,0,1-2.46-.6,4.38,4.38,0,0,1-1.72-1.58,4.88,4.88,0,0,1-.56-2.32v-.19a4.66,4.66,0,0,1,.56-2.32,4.8,4.8,0,0,1,1.67-1.62,5.4,5.4,0,0,1,2.51-.56h3.2c.23,0,.33-.09.33-.32v-.47A2.7,2.7,0,0,0,35,58.82a2.3,2.3,0,0,0-1.67-.61,2.75,2.75,0,0,0-1,.24,2.43,2.43,0,0,0-.83.74c-.14.14-.19.28-.28.37L31,60c-.1.14-.19.23-.19.28a.33.33,0,0,1-.19,0,.3.3,0,0,1-.18,0l-2.79-1.44a.34.34,0,0,1-.18-.23,2.61,2.61,0,0,1,.42-1.07,6.17,6.17,0,0,1,1.2-1.39,5.72,5.72,0,0,1,4.27-1.44,7.55,7.55,0,0,1,3.3.69,5.55,5.55,0,0,1,2.18,2.09,5.84,5.84,0,0,1,.79,3.11V70.1ZM20.3,64.48V60.91A2.19,2.19,0,0,0,20,59.7a1.94,1.94,0,0,0-.88-.84,2,2,0,0,0-1.21-.32,2.28,2.28,0,0,0-1.71.7,2.25,2.25,0,0,0-.7,1.67v3.57a2.45,2.45,0,0,0,.7,1.72,2.38,2.38,0,0,0,1.71.7,2.32,2.32,0,0,0,1.72-.7,2.38,2.38,0,0,0,.7-1.72Zm3.85,0a6.06,6.06,0,0,1-.74,3,5.48,5.48,0,0,1-2.14,2.13,6.17,6.17,0,0,1-3.06.79,4,4,0,0,1-1.53-.32,6,6,0,0,0-1-.37c-.14,0-.23.14-.23.42v5.57c0,.23-.09.37-.32.37H11.94a.33.33,0,0,1-.32-.37V55.34a.29.29,0,0,1,.32-.33h2.88c.19,0,.28.09.37.33s.14.32.19.32a6.51,6.51,0,0,0,1-.32A4.52,4.52,0,0,1,18.16,55a6.25,6.25,0,0,1,3.07.74,6,6,0,0,1,2.18,2.09,6,6,0,0,1,.74,3.07v3.57Z" fill="#069" fill-rule="evenodd"/><polygon points="56.69 79.66 56.69 83.56 117.69 83.56 117.69 79.66 56.69 79.66 56.69 79.66" fill-rule="evenodd" fill="url(#linear-gradient-12)"/><path d="M119.5,64.85h-5.43l3.39-3.48a.42.42,0,0,0,.14-.32c0-.19-.14-.28-.37-.28h-4l-.23.09L108.22,66a1,1,0,0,0-.14.65l5.8,9.38.33.14h3.94c.24,0,.38-.05.38-.23a.59.59,0,0,0-.1-.28l-4.31-6.92h5.38c5.52,0,6.5,6.78,3.39,9.61a5,5,0,0,1-3.39,1.3h-1.81v3.9h1.81a8.47,8.47,0,0,0,8.08-5.2C130,72.84,127.44,64.85,119.5,64.85Z" fill="#0098c5" fill-rule="evenodd"/></svg>